<svg width="263" height="151" viewBox="0 0 263 151" fill="none" xmlns="http://www.w3.org/2000/svg">
<path d="M104.452 1.21952C101.301 -0.430702 97.7009 -0.430693 94.7005 1.36955L1.23767 55.377C-0.412557 56.4271 -0.412557 58.8274 1.23767 59.7276L155.009 148.54C158.309 150.49 162.36 150.49 165.51 148.54L260.623 93.6322C262.574 92.5821 262.574 89.8817 260.623 88.6816L104.452 1.21952Z" fill="#EB5C70"/>
<path d="M106.102 3.91972L100.251 0.469238L2.43774 57.3271L75.7978 99.6329L86.8993 105.934L123.204 126.787C124.555 126.037 126.505 125.886 127.705 124.986L85.2491 100.383L9.78875 56.877L99.9512 4.36978C101.001 3.7697 102.051 3.16961 102.952 2.56953C104.002 3.31963 105.052 3.61968 106.102 3.91972Z" fill="#EB5C70"/>
<path d="M53.7449 75.3293C42.3433 68.7284 29.2915 63.3276 14.1394 58.5269C12.6392 58.0769 11.139 57.6268 9.63879 57.1768L85.0992 100.683C76.398 90.9314 66.1966 82.5303 53.7449 75.3293Z" fill="#D70320"/>
<path d="M114.503 6.62014C111.803 5.72002 108.952 4.81989 106.102 3.91977C105.052 3.61973 103.852 3.31969 102.802 2.86963C104.302 3.31969 105.802 3.76974 107.302 4.21981L13.9894 58.3773C29.1415 63.0279 42.1933 68.5787 53.5948 75.1796C66.0465 82.3806 76.398 90.7817 84.9491 100.683C79.6984 87.3312 68.7469 78.03 54.945 70.0789C46.6939 65.2782 37.5426 61.0776 27.9413 56.727C56.8953 40.2248 85.6992 23.4225 114.503 6.62014Z" fill="url(#paint0_linear)"/>
<path d="M107.452 4.36972C105.952 3.91966 104.452 3.46959 102.952 3.01953C71.8974 21.022 40.6931 39.1745 9.63879 57.177C11.139 57.627 12.6392 58.0771 14.1394 58.5272L107.452 4.36972Z" fill="#BCBEC0"/>
<path d="M114.503 6.62012C85.6992 23.4224 56.8953 40.0747 28.0913 56.877C37.5426 61.2276 46.8439 65.4282 55.095 70.2289C68.7469 78.1799 79.8484 87.4812 85.0992 100.833C78.7983 84.9309 66.3466 73.5293 49.8443 63.928C44.2935 60.7776 38.2927 57.6271 31.8418 54.7767C59.4456 38.7245 86.8994 22.6723 114.503 6.62012Z" fill="#BCBEC0"/>
<path d="M140.157 8.12017C135.506 5.56982 130.405 3.01947 125.155 0.619141C121.704 2.71943 118.104 4.66968 114.653 6.76997C87.0494 22.8222 59.4456 38.8744 31.8418 54.9266C38.2927 57.777 44.2935 60.7774 49.8443 64.0779C66.3465 73.6792 78.9483 84.9307 85.0991 100.983L175.262 48.6257C176.312 48.0257 177.362 47.4256 178.262 46.8255C147.208 64.828 116.153 82.9805 84.9491 100.983C82.8488 84.3306 72.6474 73.2291 57.4953 64.5279C55.095 63.1777 52.5447 61.8275 49.9943 60.4774C80.1484 42.9249 110.153 25.5226 140.157 8.12017Z" fill="url(#paint1_linear)"/>
<path d="M140.157 8.12012C110.153 25.5225 80.1485 42.9249 50.1444 60.3273C52.8448 61.6775 55.2451 62.8776 57.6454 64.3778C72.7975 73.2291 82.9989 84.1806 85.0992 100.833C82.8489 83.2805 74.2977 70.6787 58.2455 61.3774C56.5953 60.4773 54.9451 59.5772 53.1448 58.6771C82.0988 41.7247 111.053 24.9224 140.157 8.12012Z" fill="#BCBEC0"/>
<path d="M151.558 7.07C149.908 6.16988 148.258 5.26975 146.458 4.36963C144.357 5.56979 142.257 6.76996 140.157 8.12014C111.203 24.9225 82.2488 41.8748 53.1448 58.6771C54.945 59.5772 56.5953 60.4773 58.2455 61.3775C74.2977 70.6787 82.8489 83.2805 85.0992 100.833C116.153 82.8304 147.208 64.6779 178.412 46.6754C176.162 29.123 167.611 16.3713 151.558 7.07Z" fill="#E6E7E8"/>
<path d="M137.306 120.636C127.405 115.835 97.551 104.434 85.0992 100.833L129.205 126.337C131.006 125.136 132.356 122.736 133.856 121.236L137.306 120.636ZM131.006 119.886C129.505 121.386 127.705 122.886 125.605 124.086L160.56 144.339C159.66 143.439 158.909 142.389 158.009 141.489C150.358 133.387 141.357 126.186 131.006 119.886Z" fill="#D70320"/>
<path d="M222.518 64.6783C213.067 59.2775 202.415 54.4769 190.414 50.4263L88.2496 99.033C118.254 81.6306 148.408 64.0782 178.412 46.6758C177.362 47.2759 176.312 47.8759 175.412 48.476C145.407 66.0284 115.253 83.4308 85.2491 100.983C97.7009 104.584 108.952 108.784 118.854 113.585C122.454 115.385 126.055 117.185 129.355 119.136C129.955 119.436 130.555 119.886 131.155 120.186C141.657 126.487 150.508 133.538 158.159 141.789L251.472 87.6314C252.372 88.5315 253.272 89.5817 254.022 90.4818C253.422 89.8817 252.822 89.2816 252.372 88.5315C243.971 79.2303 234.07 71.4292 222.518 64.6783Z" fill="#F1F2F2"/>
<path d="M251.322 87.3311L158.009 141.488C158.909 142.389 159.809 143.439 160.56 144.339C191.614 126.336 222.818 108.184 253.872 90.1814C253.122 89.2813 252.222 88.2312 251.322 87.3311Z" fill="#BCBEC0"/>
<path d="M190.414 50.4263C186.513 49.0761 182.612 47.8759 178.412 46.6758C148.408 64.0782 118.254 81.6306 88.2495 99.033L190.414 50.4263Z" fill="#BCBEC0"/>
<g opacity="0.28">
<path opacity="0.28" d="M96.3507 36.3239C94.1004 37.3741 93.0502 37.8241 90.7999 38.8743C90.1998 38.4242 89.5998 37.9741 88.9997 37.6741C88.9997 37.6741 88.8496 37.6741 88.8496 37.8241C89.4497 38.1242 89.8998 38.5742 90.6499 39.0243C88.3996 40.0744 87.3494 40.5245 85.0991 41.5746C84.6491 41.2746 84.199 40.9746 83.749 40.6745C83.749 40.6745 83.5989 40.6745 83.5989 40.8245C84.049 41.1246 84.349 41.4246 84.7991 41.7247C82.5488 42.7748 81.4986 43.2249 79.2483 44.275C78.9483 44.125 78.6483 43.8249 78.4982 43.6749C78.4982 43.6749 78.3482 43.6749 78.3482 43.825C78.6482 43.975 78.7983 44.125 79.0983 44.425C76.848 45.4752 75.7978 45.9252 73.3975 46.9754C73.2475 46.9754 73.2475 46.8254 73.0975 46.8254C73.0975 46.8254 72.9475 46.8254 72.9475 46.9754C73.0975 46.9754 73.0975 47.1254 73.2475 47.1254C72.1974 47.5755 71.4473 48.0255 70.5471 48.3256C69.9471 48.6256 69.1969 49.0757 68.5969 49.3757C70.2471 48.6256 71.4472 48.0255 73.3975 47.1254C75.7978 48.9257 76.848 49.6757 79.0983 51.476C76.848 52.5261 75.6478 53.1262 73.2475 54.1764C70.9972 52.3761 69.9471 51.626 67.6968 49.8258C67.6968 49.8258 67.5467 49.8258 67.5467 49.9758C69.797 51.626 70.8472 52.5262 73.0975 54.3264C70.6971 55.3765 69.647 55.9766 67.2467 57.0268C65.2964 55.3765 64.0962 54.6264 62.296 53.1262C62.296 53.1262 62.146 53.1262 62.146 53.2762C63.9462 54.7764 65.1464 55.5266 67.0967 57.1768C64.6963 58.2269 63.4962 58.827 61.2459 59.8772C59.4456 58.527 58.3955 57.6268 56.8952 56.4267C56.8952 56.4267 56.7452 56.4267 56.7452 56.5767C58.2454 57.7769 59.2956 58.677 61.0958 60.0272C59.8957 60.6273 58.9955 60.9273 58.0954 61.3774C58.0954 61.3774 58.2454 61.3774 58.2454 61.5274C59.1456 61.0773 60.0457 60.7773 61.2459 60.1772C63.3461 61.9774 64.3963 62.8776 66.4966 64.5278C65.5965 64.8278 64.9964 65.1279 64.3963 65.4279L64.5463 65.5779C65.1464 65.2779 65.8965 64.9779 66.6466 64.6778C68.7469 66.4781 69.797 67.3782 71.7473 69.0284C70.9972 69.3284 70.2471 69.6285 69.647 69.9285L69.797 70.0786C70.3971 69.7785 71.1472 69.4785 71.8973 69.1784C73.9976 70.9787 74.8977 71.8788 76.848 73.529C75.7979 73.9791 74.8977 74.2791 74.1476 74.7292L74.2976 74.8792C75.0478 74.5792 75.9479 74.1291 76.998 73.6791C78.9483 75.4793 79.9984 76.3794 81.7987 78.0296C80.1485 78.7797 78.9483 79.2298 77.7481 79.6799C77.7481 79.6799 77.7481 79.8299 77.8981 79.8299C79.2483 79.2298 80.2985 78.7797 82.0987 78.0296C84.049 79.8299 84.9491 80.73 86.7494 82.3803C84.349 83.4304 82.9988 83.8805 80.5985 84.9306C80.5985 84.9306 80.5985 85.0806 80.7485 85.0806C83.1489 84.0305 84.499 83.5804 86.8994 82.5303C88.6996 84.3305 89.5997 85.0806 91.4 86.8809C88.8496 87.931 87.4995 88.3811 84.9491 89.4312C83.2989 87.781 82.3988 87.0309 80.8985 85.5307C80.8985 85.6807 81.0486 85.8307 81.0486 85.9807C82.2487 87.1809 83.1489 88.081 84.6491 89.4312C83.899 89.7313 83.2989 90.0313 82.6988 90.1813V90.3314C83.2989 90.0313 84.049 89.8813 84.7991 89.4312C86.5993 91.2315 87.3494 91.9816 89.1497 93.7818C87.0494 94.5319 85.8492 95.132 84.199 95.7321V95.8821C85.9993 95.132 87.1994 94.6819 89.2997 93.9318C90.1998 94.982 90.9499 95.5821 91.7001 96.3322L91.8501 96.1822C91.1 95.432 90.4999 94.6819 89.4497 93.7818C92.1501 92.7317 93.5003 92.2816 96.0506 91.2315C96.6507 91.8316 97.1008 92.2816 97.7009 92.8817L97.8509 92.7317C97.4008 92.2816 96.9508 91.8316 96.3507 91.2315C99.051 90.1813 100.251 89.7313 102.952 88.6811C103.252 88.9812 103.552 89.2812 103.702 89.4312L103.852 89.2812C103.552 88.9811 103.402 88.8311 103.102 88.5311C105.652 87.4809 107.002 87.0309 109.552 85.9807C109.552 85.9807 109.703 85.9808 109.703 85.8307C109.703 85.8307 109.853 85.8307 109.853 85.6807C110.303 85.3807 110.603 85.2306 111.053 84.9306C110.603 85.0806 110.153 85.3807 109.552 85.5307C107.752 83.7304 106.852 82.9803 105.052 81.1801C107.602 80.1299 108.952 79.5299 111.353 78.4797C113.003 79.9799 113.903 80.8801 115.403 82.3803L115.553 82.2302C114.053 80.88 113.153 79.9799 111.503 78.4797C114.053 77.4296 115.253 76.8295 117.804 75.7793C119.304 77.1295 120.204 77.8796 121.254 78.9298L121.404 78.7797C120.354 77.7296 119.454 76.9795 117.954 75.6293C120.504 74.5792 121.704 73.9791 124.255 72.929C125.455 73.9791 126.205 74.7292 127.105 75.4793C127.105 75.4793 127.255 75.4793 127.255 75.3293C126.355 74.5792 125.605 73.8291 124.405 72.7789C126.955 71.7288 128.155 71.1287 130.555 70.0786C131.456 70.8287 132.056 71.4287 132.806 72.0288C132.806 72.0288 132.956 72.0288 132.956 71.8788C132.356 71.2787 131.606 70.6786 130.855 69.9285C133.256 68.8784 134.606 68.2783 137.006 67.2282C137.606 67.6782 138.056 68.1283 138.506 68.5784C138.506 68.5784 138.656 68.5784 138.656 68.4283C138.206 67.9783 137.756 67.6782 137.156 67.0782C139.557 66.028 140.757 65.4279 143.157 64.3778C143.457 64.6778 143.757 64.9779 144.057 65.1279C144.057 65.1279 144.207 65.1279 144.207 64.9779C143.907 64.6778 143.607 64.5278 143.307 64.2277C145.707 63.1776 146.908 62.5775 149.308 61.5274C149.458 61.6774 149.458 61.6774 149.608 61.8274C149.608 61.8274 149.758 61.8274 149.758 61.6774C149.608 61.5274 149.608 61.5274 149.458 61.3774C150.658 60.7773 151.558 60.4772 152.458 60.0272C153.058 59.7271 153.659 59.4271 154.109 58.977C152.158 59.8772 151.108 60.3272 149.158 61.2273C147.058 59.4271 146.008 58.527 143.757 56.8767C145.707 55.9766 146.758 55.5266 148.708 54.6264C148.858 54.6264 148.858 54.6264 148.858 54.4764C151.108 56.2767 152.158 57.1768 154.259 58.827C154.259 58.827 154.409 58.827 154.409 58.677C152.308 56.8767 151.258 56.1266 149.008 54.3264C151.408 53.2763 152.458 52.6762 154.859 51.626C156.959 53.2763 158.009 54.0263 159.809 55.5266C159.809 55.5266 159.959 55.5266 159.959 55.3765C158.159 53.8763 157.109 53.1262 155.009 51.476C157.259 50.4258 158.459 49.8258 160.71 48.7756C162.51 50.1258 163.71 51.0259 165.21 52.2261C165.21 52.2261 165.36 52.2261 165.36 52.0761C163.86 50.8759 162.81 49.9758 160.86 48.6256C163.11 47.5755 164.31 46.9754 166.56 45.9252C168.211 47.1254 169.261 48.0255 170.611 48.9257C170.611 48.9257 170.761 48.9256 170.761 48.7756C169.561 47.8755 168.361 46.9754 166.86 45.7752C169.111 44.7251 170.311 44.125 172.561 43.0749C174.061 44.125 174.962 44.8751 176.012 45.6252C176.012 45.6252 176.162 45.6252 176.162 45.4752C175.112 44.7251 174.061 43.975 172.711 42.9248C174.361 42.1747 175.412 41.5746 176.912 40.9746V40.8245C175.412 41.5746 174.361 42.0247 172.561 42.7748C170.161 40.9745 168.961 40.2245 166.56 38.4242C168.811 37.3741 169.861 36.924 172.111 35.8739C173.911 37.224 175.112 37.9741 176.462 39.0243C176.462 38.8743 176.462 38.8743 176.462 38.7242C175.112 37.8241 174.061 36.924 172.261 35.7238C173.461 35.1237 174.361 34.6737 175.262 34.3737V34.2236C174.361 34.6737 173.461 35.1237 172.111 35.7238C169.711 34.0736 168.361 33.1735 165.81 31.3732C167.911 30.3231 168.961 29.873 171.211 28.8229C172.261 29.573 173.161 30.0231 173.911 30.6231C173.911 30.4731 173.911 30.4731 173.761 30.3231C173.011 29.873 172.261 29.2729 171.361 28.6729C171.811 28.3728 172.261 28.2228 172.711 28.0728C172.711 28.0728 172.711 27.9228 172.561 27.9228C172.111 28.0728 171.661 28.3728 171.061 28.6729C168.511 27.0226 167.16 26.1225 164.61 24.4723C166.56 23.5722 167.61 22.9721 169.261 22.222L169.111 22.072C167.31 22.9721 166.26 23.4222 164.31 24.3223C161.61 22.672 160.41 21.7719 157.709 20.1217C159.809 19.0715 160.71 18.6215 162.81 17.5713C165.06 18.9215 166.41 19.8216 168.511 21.0218C168.361 20.8718 168.361 20.7218 168.211 20.7218C166.41 19.6716 165.21 18.7715 162.96 17.5713C163.71 17.2713 164.16 16.9713 164.76 16.6712L164.61 16.5212C164.01 16.8212 163.41 17.1213 162.81 17.4213C160.109 15.7711 158.759 14.871 155.909 13.2207C157.409 12.4706 158.309 12.0206 159.359 11.4205L159.209 11.2705C158.009 11.8705 157.109 12.3206 155.609 13.0707C152.758 11.4205 151.408 10.6704 148.558 9.02015C150.358 8.12003 151.258 7.66998 152.908 6.91987C152.758 6.91987 152.758 6.76984 152.608 6.76984C150.958 7.51995 150.058 7.97002 148.258 8.87014C145.557 7.36994 144.057 6.46981 141.357 5.11963C141.357 5.11963 141.207 5.11963 141.207 5.26965C143.907 6.76985 145.257 7.51995 148.108 9.02015C146.158 9.92028 145.107 10.5204 143.157 11.4205C140.607 9.92028 139.107 9.17019 136.706 7.82C136.706 7.82 136.556 7.81999 136.556 7.97001C138.957 9.3202 140.307 10.0703 143.007 11.5705C141.057 12.6207 140.007 13.0707 138.056 13.9708C135.656 12.6207 134.306 11.7205 132.056 10.5204C132.056 10.5204 131.906 10.5204 131.906 10.6704C134.006 11.8706 135.506 12.7707 137.906 14.1209C135.956 15.171 134.906 15.6211 132.806 16.6712C130.555 15.321 129.205 14.5709 127.255 13.3708C127.255 13.3708 127.105 13.3708 127.105 13.5208C129.055 14.7209 130.405 15.4711 132.656 16.8212C130.705 17.8714 129.655 18.3214 127.555 19.3716C125.455 18.1714 124.255 17.2713 122.454 16.2211C122.454 16.2211 122.304 16.2212 122.304 16.3712C123.954 17.4213 125.305 18.1714 127.405 19.3716C125.305 20.4217 124.405 20.8718 122.304 21.9219C120.504 20.7218 119.154 19.9717 117.654 19.0716C117.654 19.0716 117.504 19.0715 117.504 19.2216C119.004 20.1217 120.204 20.8718 122.154 22.072C120.054 23.1221 119.004 23.5722 116.903 24.6223C115.253 23.5722 114.053 22.8221 112.703 21.9219C112.703 21.9219 112.553 21.9219 112.553 22.072C113.903 22.8221 114.953 23.5722 116.603 24.6223C114.503 25.6725 113.453 26.1225 111.353 27.1727C109.853 26.2725 108.802 25.5224 107.752 24.7723C107.752 24.7723 107.602 24.7723 107.602 24.9223C108.652 25.6725 109.853 26.2725 111.203 27.3227C109.402 28.2228 108.352 28.6729 106.552 29.573C105.202 28.6729 104.302 28.0728 103.252 27.4727C103.252 27.4727 103.102 27.4727 103.102 27.6227C104.152 28.2228 105.052 28.9729 106.402 29.723C104.302 30.7731 103.252 31.2232 101.001 32.2733C99.9512 31.5232 99.0511 30.9232 98.3009 30.4731C98.3009 30.4731 98.1509 30.4731 98.1509 30.6231C98.901 31.2232 99.8012 31.8233 100.851 32.4234C98.751 33.4735 97.5509 33.9236 95.4506 34.9737C94.5504 34.3736 93.8003 33.9236 93.2003 33.4735C93.2003 33.4735 93.0502 33.4735 93.0502 33.6236C94.7005 35.2738 95.4506 35.7238 96.3507 36.3239ZM90.9499 39.1743C93.3503 40.9746 94.5504 41.7247 96.9508 43.5249C94.7005 44.575 93.6503 45.0251 91.25 46.0753C88.8497 44.275 87.6495 43.5249 85.2492 41.7247C87.4995 40.6745 88.6996 40.2245 90.9499 39.1743ZM119.004 33.3235C119.004 33.3235 119.154 33.3235 119.154 33.1735C121.704 34.8237 122.904 35.7238 125.455 37.5241C123.504 38.4242 122.604 38.8743 120.654 39.7744C118.254 37.9741 117.054 37.224 114.503 35.4238C116.303 34.6737 117.204 34.2236 119.004 33.3235ZM138.656 53.2762C136.406 51.476 135.206 50.5759 132.956 48.9257C134.906 48.0255 135.806 47.5755 137.756 46.6753C137.906 46.6753 137.906 46.6753 137.906 46.5253C140.307 48.3256 141.357 49.0757 143.607 50.8759C141.807 51.9261 140.757 52.3761 138.656 53.2762ZM125.455 37.8241C125.605 37.8241 125.605 37.8241 125.605 37.6741C128.005 39.3243 129.355 40.2244 131.756 42.0247C129.805 42.9248 128.905 43.3749 126.805 44.275C124.405 42.4748 123.204 41.7247 120.804 39.9244C122.604 39.0243 123.504 38.5742 125.455 37.8241ZM132.806 48.7756C130.555 46.9754 129.355 46.2253 126.955 44.425C128.905 43.5249 129.805 43.0748 131.606 42.1747C131.756 42.1747 131.756 42.1747 131.756 42.0247C134.156 43.8249 135.356 44.5751 137.606 46.3753C135.806 47.4254 134.756 47.8755 132.806 48.7756ZM126.655 51.626C124.405 52.6762 123.204 53.2763 120.804 54.3264C118.554 52.5262 117.504 51.626 115.103 49.9758C117.354 48.9256 118.554 48.3256 120.804 47.2754C123.354 48.9256 124.405 49.8258 126.655 51.626ZM121.104 47.1254C123.354 46.0753 124.555 45.6252 126.805 44.5751C129.205 46.3753 130.405 47.1254 132.656 48.9257C130.405 49.9758 129.205 50.5759 126.955 51.626C124.705 49.8258 123.504 48.9257 121.104 47.1254ZM120.654 54.3264C118.254 55.3765 117.204 55.9766 114.803 57.0268C112.553 55.2265 111.503 54.3264 109.252 52.6762C111.503 51.626 112.703 51.0259 114.953 49.9758C117.354 51.776 118.554 52.5262 120.654 54.3264ZM114.653 57.0268C112.253 58.0769 111.053 58.677 108.802 59.7271C106.702 57.9269 105.502 57.0268 103.252 55.3765C105.652 54.3264 106.702 53.7263 109.102 52.6762C111.353 54.4764 112.403 55.3765 114.653 57.0268ZM108.502 59.8772C106.102 60.9273 104.902 61.5274 102.502 62.5775C100.401 60.7773 99.3511 59.8772 97.1008 58.2269C99.5011 57.1768 100.701 56.5767 102.952 55.5266C105.352 57.1768 106.402 58.0769 108.502 59.8772ZM102.352 62.5775C99.9512 63.6277 98.751 64.2277 96.3507 65.2779C94.2504 63.4776 93.2002 62.5775 91.1 60.9273C93.5003 59.8772 94.7005 59.2771 96.9508 58.2269C99.2011 59.8772 100.251 60.7773 102.352 62.5775ZM90.9499 60.6273C88.8497 58.827 87.6495 57.9269 85.5492 56.2767C87.9495 55.2265 88.9997 54.6264 91.4 53.5763C93.6503 55.3765 94.7005 56.2767 96.9508 57.9269C94.4004 59.1271 93.3503 59.5771 90.9499 60.6273ZM96.2007 65.2779C93.8003 66.328 92.6002 66.9281 90.0498 67.9783C87.9495 66.178 86.8994 65.2779 84.7991 63.6277C87.1994 62.5775 88.3996 61.9774 90.7999 60.9273C93.0502 62.5775 94.1004 63.4776 96.2007 65.2779ZM96.3507 65.4279C98.451 67.2282 99.5011 68.1283 101.451 69.7785C99.0511 70.8287 97.7009 71.4287 95.3005 72.4789C93.3503 70.6786 92.3001 69.7785 90.1998 68.1283C92.7502 67.0782 93.9503 66.4781 96.3507 65.4279ZM96.5007 65.2779C98.901 64.2277 100.101 63.6277 102.502 62.5775C104.602 64.3778 105.652 65.2779 107.752 66.9281C105.352 67.9783 104.152 68.5784 101.601 69.6285C99.6511 67.9783 98.601 67.0781 96.5007 65.2779ZM102.802 62.5775C105.202 61.5274 106.402 60.9273 108.802 59.8772C110.903 61.6774 111.953 62.5775 114.053 64.2277C111.653 65.2779 110.453 65.878 108.052 66.9281C105.952 65.2779 104.902 64.3778 102.802 62.5775ZM108.952 59.8772C111.353 58.827 112.553 58.2269 114.803 57.1768C117.054 58.977 118.104 59.8771 120.204 61.5274C117.804 62.5775 116.603 63.1776 114.203 64.2277C112.103 62.5775 111.053 61.6774 108.952 59.8772ZM115.103 57.1768C117.504 56.1266 118.554 55.5266 120.954 54.4764C123.204 56.2767 124.255 57.1768 126.505 58.827C124.105 59.8772 122.904 60.4772 120.504 61.5274C118.254 59.7271 117.204 58.827 115.103 57.1768ZM121.104 54.3264C123.504 53.2763 124.555 52.6762 126.955 51.626C129.205 53.4263 130.405 54.3264 132.506 55.9766C130.105 57.0268 129.055 57.6268 126.655 58.677C124.405 57.0268 123.354 56.1266 121.104 54.3264ZM127.105 51.626C129.355 50.5759 130.555 49.9758 132.806 48.9257C135.056 50.7259 136.256 51.476 138.506 53.2762C136.256 54.3264 135.056 54.9265 132.656 55.9766C130.555 54.3264 129.355 53.4263 127.105 51.626ZM132.056 42.0247C134.306 40.9745 135.356 40.5245 137.606 39.4743C140.007 41.2746 141.207 42.0247 143.607 43.825C141.357 44.8751 140.307 45.3252 137.906 46.3753C135.656 44.7251 134.456 43.8249 132.056 42.0247ZM137.756 39.3243C140.007 38.2742 141.057 37.8241 143.307 36.774C145.707 38.4242 147.058 39.3243 149.458 41.1246C147.208 42.1747 146.158 42.6248 143.907 43.6749C141.507 41.8747 140.307 41.1246 137.756 39.3243ZM143.457 36.624C145.707 35.5738 146.758 35.1238 148.858 34.0736C151.408 35.7238 152.608 36.624 155.009 38.4242C152.758 39.4743 151.708 39.9244 149.458 40.9746C147.208 39.3243 146.008 38.4242 143.457 36.624ZM149.008 33.9236C151.108 32.8734 152.308 32.4234 154.409 31.3732C156.959 33.0235 158.159 33.9236 160.71 35.7238C158.609 36.774 157.409 37.224 155.309 38.2742C152.758 36.6239 151.558 35.7238 149.008 33.9236ZM148.858 33.7736C146.308 32.1233 145.107 31.2232 142.557 29.573C144.657 28.5229 145.707 28.0728 147.808 27.0226C150.358 28.6729 151.708 29.573 154.259 31.2232C152.158 32.2734 150.958 32.8734 148.858 33.7736ZM148.708 33.9236C146.608 34.9737 145.407 35.4238 143.307 36.4739C140.757 34.8237 139.557 33.9236 137.006 32.1233C139.107 31.0732 140.157 30.6231 142.407 29.573C144.807 31.3732 146.158 32.2734 148.708 33.9236ZM143.007 36.624C140.757 37.6741 139.707 38.1242 137.456 39.1743C135.056 37.3741 133.706 36.624 131.305 34.8237C133.406 33.7736 134.606 33.3235 136.706 32.2733C139.257 34.0736 140.607 34.8237 143.007 36.624ZM137.456 39.3243C135.206 40.3745 134.156 40.8245 131.906 41.8747C129.505 40.0744 128.305 39.3243 125.755 37.5241C128.005 36.4739 129.055 36.0239 131.155 34.9737C133.706 36.774 134.906 37.5241 137.456 39.3243ZM126.655 44.425C124.405 45.4752 123.354 45.9252 120.954 46.9754C118.554 45.1751 117.504 44.425 115.103 42.6248C117.354 41.5746 118.404 41.1246 120.654 40.0744C123.054 41.7247 124.255 42.6248 126.655 44.425ZM120.804 47.1254C118.554 48.1756 117.354 48.7756 115.103 49.8258C112.853 48.0255 111.653 47.2754 109.252 45.4752C111.503 44.425 112.553 43.975 114.803 42.9248C117.204 44.425 118.404 45.3252 120.804 47.1254ZM114.803 49.8258C112.553 50.8759 111.353 51.476 109.102 52.5261C106.852 50.7259 105.652 49.9758 103.402 48.1755C105.652 47.1254 106.852 46.5253 109.102 45.4752C111.353 47.1254 112.553 48.0255 114.803 49.8258ZM108.952 52.5261C106.702 53.5763 105.502 54.1764 103.102 55.2265C100.851 53.4263 99.8011 52.5261 97.4008 50.8759C99.6511 49.8258 100.851 49.2257 103.102 48.1755C105.502 49.9758 106.702 50.7259 108.952 52.5261ZM102.952 55.2265C100.551 56.2767 99.5011 56.8767 97.1008 57.9269C94.8505 56.1266 93.8003 55.2265 91.55 53.5763C93.8003 52.5262 95.0005 51.9261 97.2508 50.8759C99.5011 52.6762 100.701 53.5763 102.952 55.2265ZM91.25 53.4263C88.9997 51.626 87.7995 50.7259 85.5492 49.0757C87.7995 48.0255 88.9997 47.4254 91.25 46.3753C93.6503 48.1756 94.7005 48.9256 97.1008 50.7259C94.7005 51.776 93.6503 52.3761 91.25 53.4263ZM91.1 53.4263C88.8496 54.4764 87.6495 55.0765 85.2492 56.1266C82.9988 54.3264 81.9487 53.4263 79.6984 51.776C81.9487 50.7259 83.1489 50.1258 85.3992 49.0757C87.6495 50.8759 88.8496 51.776 91.1 53.4263ZM90.6499 60.7773C88.2496 61.8274 87.0494 62.4275 84.6491 63.4776C82.5488 61.6774 81.4986 60.7773 79.2483 59.1271C81.6487 58.0769 82.8488 57.4768 85.0991 56.4267C87.4995 58.0769 88.5496 58.977 90.6499 60.7773ZM84.4991 63.4776C82.0987 64.5278 80.8986 65.1279 78.4982 66.178C76.3979 64.3778 75.3478 63.4777 73.2475 61.8274C75.6478 60.7773 76.848 60.1772 79.2483 59.1271C81.3486 60.7773 82.3988 61.6774 84.4991 63.4776ZM84.6491 63.6277C86.7494 65.4279 87.7995 66.328 89.8998 67.9783C87.4995 69.0284 86.2993 69.6285 83.749 70.6786C81.7987 68.8784 80.7485 67.9783 78.6482 66.3281C81.0486 65.2779 82.2487 64.6778 84.6491 63.6277ZM90.0498 68.1283C92.1501 69.9285 93.0502 70.8287 95.1505 72.4789C92.6002 73.529 91.4 74.1291 88.8496 75.1793C86.8994 73.379 85.8492 72.4789 83.899 70.8287C86.4493 69.7785 87.6495 69.1784 90.0498 68.1283ZM95.3005 72.7789C97.2508 74.5792 98.301 75.4793 100.251 77.1295C97.7009 78.1797 96.5007 78.7798 93.9504 79.8299C92.0001 78.0297 91.1 77.1295 89.1497 75.4793C91.55 74.2791 92.7502 73.8291 95.3005 72.7789ZM100.251 77.2795C102.201 79.0798 103.102 79.9799 104.902 81.6301C102.351 82.6803 101.001 83.2804 98.451 84.3305C96.6507 82.5303 95.7506 81.7802 93.8003 79.9799C96.5007 78.7798 97.8509 78.3297 100.251 77.2795ZM95.4506 72.6289C98.0009 71.5788 99.2011 70.9787 101.601 69.9285C103.552 71.7288 104.602 72.6289 106.552 74.2791C104.002 75.3293 102.802 75.9294 100.251 76.9795C98.451 75.3293 97.4008 74.4292 95.4506 72.6289ZM101.901 69.9285C104.302 68.8784 105.652 68.2783 108.052 67.2282C110.153 69.0284 111.053 69.9286 113.153 71.5788C110.753 72.6289 109.402 73.229 107.002 74.2791C104.902 72.4789 103.852 71.7288 101.901 69.9285ZM108.202 67.2282C110.603 66.178 111.803 65.5779 114.203 64.5278C116.303 66.328 117.354 67.2282 119.304 68.8784C116.904 69.9285 115.553 70.5286 113.153 71.5788C111.203 69.7785 110.303 68.8784 108.202 67.2282ZM114.503 64.3778C116.904 63.3276 118.104 62.7275 120.504 61.6774C122.604 63.4776 123.654 64.3778 125.755 66.028C123.354 67.0781 122.154 67.6782 119.604 68.7284C117.504 67.0781 116.603 66.178 114.503 64.3778ZM120.654 61.6774C123.054 60.6273 124.255 60.0272 126.655 58.977C128.755 60.7773 129.955 61.6774 132.056 63.3276C129.655 64.3778 128.455 64.9778 126.055 66.028C123.804 64.3778 122.754 63.4776 120.654 61.6774ZM126.805 58.977C129.205 57.9269 130.405 57.3268 132.656 56.2767C134.906 58.0769 135.956 58.977 138.056 60.6273C135.656 61.6774 134.456 62.2775 132.056 63.3276C130.105 61.5274 128.905 60.6273 126.805 58.977ZM132.956 56.1266C135.356 55.0765 136.406 54.4764 138.807 53.4263C141.057 55.2265 142.107 56.1266 144.357 57.7769C141.957 58.827 140.757 59.4271 138.506 60.4772C136.256 58.827 135.056 57.9269 132.956 56.1266ZM138.206 46.5253C140.457 45.4752 141.657 44.8751 143.907 43.975C146.308 45.7752 147.508 46.5253 149.758 48.3256C147.508 49.3757 146.308 49.9758 144.057 51.0259C141.657 49.2257 140.457 48.3256 138.206 46.5253ZM144.057 43.825C146.308 42.7748 147.358 42.3247 149.608 41.2746C152.008 43.0748 153.208 43.825 155.609 45.6252C153.359 46.6753 152.158 47.1254 149.908 48.1755C147.508 46.3753 146.458 45.6252 144.057 43.825ZM149.758 41.1246C152.008 40.0744 153.058 39.6244 155.309 38.5742C157.709 40.3745 158.909 41.1246 161.31 42.9248C159.059 43.975 158.009 44.425 155.759 45.4752C153.359 43.6749 152.158 42.9248 149.758 41.1246ZM155.459 38.4242C157.709 37.3741 158.759 36.924 160.86 35.8739C163.41 37.5241 164.61 38.4242 167.01 40.2244C164.76 41.2746 163.71 41.7247 161.46 42.7748C159.209 40.9745 158.009 40.2245 155.459 38.4242ZM160.86 35.5738C158.309 33.9236 157.109 33.0235 154.559 31.2232C156.659 30.1731 157.709 29.723 159.809 28.6729C162.36 30.3231 163.71 31.2232 166.26 32.8734C164.16 34.0736 163.11 34.5237 160.86 35.5738ZM154.409 31.2232C151.858 29.573 150.508 28.6729 147.958 27.0226C150.058 25.9725 151.108 25.5224 153.209 24.4723C155.909 26.1225 157.109 27.0226 159.809 28.6729C157.559 29.573 156.509 30.1731 154.409 31.2232ZM153.058 24.1722C150.358 22.522 149.008 21.6219 146.308 19.9717C148.408 18.9215 149.308 18.4715 151.408 17.4213C154.109 19.0715 155.459 19.9717 158.159 21.6219C156.209 22.672 155.159 23.1221 153.058 24.1722ZM152.908 24.3223C150.808 25.3724 149.758 25.8225 147.658 26.8726C145.107 25.2224 143.757 24.3223 141.057 22.672C143.157 21.6219 144.207 21.1718 146.158 20.1217C149.008 21.7719 150.358 22.522 152.908 24.3223ZM147.508 26.8726C145.407 27.9228 144.357 28.3728 142.257 29.423C139.707 27.7727 138.356 26.8726 135.656 25.2224C137.756 24.1722 138.807 23.7222 140.907 22.672C143.607 24.3223 144.957 25.2224 147.508 26.8726ZM142.107 29.573C140.007 30.6231 138.957 31.0732 136.706 32.1233C134.156 30.4731 132.806 29.573 130.255 27.9228C132.356 26.8726 133.406 26.4226 135.506 25.3724C138.206 27.0226 139.557 27.7727 142.107 29.573ZM136.556 32.1233C134.456 33.1735 133.406 33.6235 131.155 34.6737C128.605 33.0235 127.405 32.1233 124.855 30.3231C126.955 29.273 128.005 28.8229 130.105 27.7727C132.806 29.573 134.006 30.4731 136.556 32.1233ZM131.005 34.8237C128.905 35.8739 127.705 36.3239 125.605 37.3741C123.204 35.7238 121.854 34.8237 119.304 33.0235C121.404 31.9733 122.454 31.5233 124.705 30.4731C127.255 32.2734 128.455 33.1735 131.005 34.8237ZM120.354 39.9244C118.104 40.9746 117.054 41.4246 114.803 42.4748C112.403 40.6745 111.203 39.9244 108.802 38.1242C111.053 37.074 112.103 36.624 114.203 35.5738C116.753 37.3741 117.954 38.1242 120.354 39.9244ZM114.653 42.6248C112.403 43.6749 111.353 44.125 109.102 45.1751C106.702 43.3749 105.502 42.6248 103.102 40.8245C105.352 39.7744 106.402 39.3243 108.652 38.2742C111.053 39.9244 112.253 40.8245 114.653 42.6248ZM108.802 45.3252C106.552 46.3753 105.352 46.8254 103.102 48.0255C100.851 46.2253 99.6511 45.4752 97.2508 43.6749C99.5011 42.6248 100.551 42.1747 102.802 41.1246C105.352 42.6248 106.552 43.5249 108.802 45.3252ZM102.952 48.0255C100.701 49.0757 99.5011 49.6757 97.2508 50.7259C95.0005 48.9256 93.8003 48.1756 91.4 46.3753C93.6503 45.3252 94.8505 44.7251 97.1008 43.825C99.5011 45.3252 100.701 46.2253 102.952 48.0255ZM85.0991 41.8747C87.4995 43.6749 88.6996 44.425 91.1 46.2253C88.8496 47.2754 87.6495 47.7255 85.3992 48.9257C83.1489 47.1254 81.9487 46.3753 79.5484 44.5751C81.7987 43.3749 82.9988 42.9248 85.0991 41.8747ZM73.6976 47.2754C75.9479 46.2253 77.148 45.7752 79.3983 44.7251C81.7987 46.5253 82.9988 47.2754 85.2492 49.0757C82.9988 50.1258 81.7987 50.7259 79.5484 51.776C77.148 49.8258 76.0979 48.9256 73.6976 47.2754ZM79.5484 51.776C81.7987 53.5763 82.9988 54.4764 85.0991 56.1266C82.6988 57.1768 81.6487 57.7769 79.2483 58.827C77.148 57.0268 75.9479 56.1266 73.6976 54.4764C75.9479 53.4263 77.148 52.8262 79.5484 51.776ZM73.5475 54.4764C75.7979 56.2767 76.848 57.1768 79.0983 58.827C76.698 59.8772 75.4978 60.4772 73.0975 61.5274C70.9972 59.7271 69.9471 58.827 67.6968 57.1768C69.9471 56.1266 71.1472 55.5266 73.5475 54.4764ZM61.5459 59.8772C63.9462 58.827 65.1464 58.2269 67.3967 57.1768C69.647 58.977 70.6972 59.8771 72.7974 61.5274C70.3971 62.5775 69.1969 63.1776 66.7966 64.2277C64.6963 62.5775 63.6462 61.6774 61.5459 59.8772ZM66.9466 64.5278C69.347 63.4776 70.5471 62.8776 72.9475 61.8274C75.0478 63.6277 76.0979 64.5278 78.1982 66.178C75.7979 67.2282 74.5977 67.8283 72.0473 68.8784C70.0971 67.0782 69.0469 66.178 66.9466 64.5278ZM72.3474 69.0284C74.7477 67.9783 75.9479 67.3782 78.4982 66.3281C80.5985 68.1283 81.6487 69.0284 83.5989 70.6786C81.1986 71.7288 79.8484 72.3289 77.4481 73.379C75.3478 71.7288 74.4477 70.8287 72.3474 69.0284ZM77.4481 73.529C79.9984 72.4789 81.1986 71.8788 83.5989 70.8287C85.5492 72.6289 86.5993 73.529 88.5496 75.1793C85.9993 76.2294 84.7991 76.8295 82.2487 77.8796C80.4485 76.2294 79.5484 75.3293 77.4481 73.529ZM82.5488 78.1797C85.0991 77.1295 86.2993 76.5294 88.8496 75.4793C90.7999 77.2795 91.7 78.1797 93.6503 79.8299C91.1 80.8801 89.8998 81.4801 87.3494 82.5303C85.3992 80.73 84.4991 79.8299 82.5488 78.1797ZM87.3494 82.6803C89.8998 81.6301 91.25 81.0301 93.6503 79.9799C95.6006 81.7802 96.5007 82.6803 98.3009 84.3305C95.7506 85.3807 94.4004 85.9807 91.8501 87.0309C90.1998 85.2306 89.2997 84.3305 87.3494 82.6803ZM89.5998 94.2319C87.9495 92.4316 87.0494 91.6815 85.2492 89.8813C87.7995 88.8311 89.1497 88.3811 91.7001 87.3309C93.5003 89.1312 94.4004 89.8813 96.0506 91.6815C93.6503 92.5817 92.3001 93.1817 89.5998 94.2319ZM96.5007 91.5315C94.8505 89.7313 93.9503 88.9812 92.1501 87.1809C94.7004 86.1308 96.0506 85.6807 98.601 84.4805C100.401 86.2808 101.301 87.0309 103.102 88.8311C100.401 89.8813 99.0511 90.4814 96.5007 91.5315ZM109.703 86.1308C107.152 87.1809 105.802 87.781 103.252 88.6811C101.451 86.8809 100.551 86.1308 98.751 84.3305C101.301 83.2804 102.652 82.6803 105.202 81.6301C107.002 83.5804 107.902 84.4805 109.703 86.1308ZM105.202 81.6301C103.402 79.8299 102.352 78.9298 100.551 77.2795C103.102 76.2294 104.302 75.6293 106.852 74.5792C108.802 76.3794 109.703 77.2795 111.653 78.9298C109.102 79.9799 107.752 80.43 105.202 81.6301ZM111.803 78.7797C109.853 76.9795 108.952 76.0794 107.002 74.4292C109.553 73.379 110.753 72.7789 113.153 71.7288C115.103 73.529 116.153 74.4292 118.104 76.0794C115.553 77.2796 114.353 77.7296 111.803 78.7797ZM118.404 76.0794C116.453 74.2791 115.553 73.379 113.453 71.7288C115.853 70.6786 117.204 70.0786 119.604 69.0284C121.704 70.8287 122.604 71.7288 124.555 73.379C122.154 74.5792 120.804 75.0293 118.404 76.0794ZM124.855 73.379C122.904 71.5788 121.854 70.6786 119.904 69.0284C122.304 67.9783 123.504 67.3782 126.055 66.3281C128.155 68.1283 129.205 69.0284 131.155 70.6786C128.455 71.7288 127.255 72.3289 124.855 73.379ZM131.155 70.6786C129.205 68.8784 128.155 67.9783 126.055 66.3281C128.455 65.2779 129.655 64.6778 132.056 63.6277C134.156 65.4279 135.206 66.328 137.306 67.9783C134.906 69.0284 133.706 69.6285 131.155 70.6786ZM137.456 67.8283C135.356 66.028 134.306 65.1279 132.206 63.4776C134.606 62.4275 135.806 61.8274 138.206 60.7773C140.307 62.5775 141.357 63.4777 143.457 65.1279C141.207 66.328 140.007 66.7781 137.456 67.8283ZM149.758 62.4275C147.358 63.4776 146.158 64.0777 143.757 65.1279C141.657 63.3276 140.607 62.4275 138.506 60.7773C140.907 59.7271 142.107 59.1271 144.357 58.0769C146.608 59.8772 147.658 60.7773 149.758 62.4275ZM144.507 57.7769C142.257 55.9766 141.207 55.0765 138.957 53.4263C140.907 52.5261 141.957 52.0761 143.757 51.176C143.907 51.176 143.907 51.1759 143.907 51.0259C146.158 52.8262 147.358 53.7263 149.458 55.3765C147.508 56.4267 146.458 56.8767 144.507 57.7769ZM149.758 55.3765C147.508 53.5763 146.458 52.6762 144.207 51.0259C146.458 49.9758 147.658 49.3757 149.908 48.3256C152.158 50.1258 153.359 50.8759 155.609 52.6762C153.359 53.8763 152.158 54.3264 149.758 55.3765ZM155.759 52.6762C153.509 50.8759 152.308 49.9758 150.058 48.3256C152.308 47.2754 153.509 46.6753 155.759 45.6252C158.159 47.4254 159.209 48.1755 161.61 49.9758C159.209 51.176 158.159 51.626 155.759 52.6762ZM161.76 49.9758C159.509 48.1755 158.309 47.4254 155.909 45.6252C158.159 44.5751 159.359 44.125 161.46 43.0749C163.86 44.8751 165.06 45.6252 167.31 47.4254C165.21 48.4756 164.01 48.9256 161.76 49.9758ZM173.311 44.5751C171.061 45.6252 169.861 46.0752 167.61 47.2754C165.21 45.4752 164.16 44.7251 161.76 42.9248C164.01 41.8747 165.06 41.4246 167.31 40.3745C169.711 42.0247 170.911 42.9248 173.311 44.5751ZM172.861 37.5241C170.611 38.5742 169.561 39.0243 167.31 40.0744C164.91 38.2742 163.71 37.5241 161.16 35.7238C163.41 34.6737 164.46 34.2236 166.56 33.1735C169.111 34.8237 170.311 35.7238 172.861 37.5241ZM165.36 26.1225C167.911 27.7727 169.261 28.6729 171.811 30.3231C169.711 31.3732 168.661 31.8233 166.41 32.8734C163.86 31.2232 162.66 30.3231 159.959 28.6729C162.21 27.6227 163.26 27.1727 165.36 26.1225ZM165.21 25.9725C163.11 27.0226 162.06 27.4727 159.959 28.5228C157.409 26.8726 156.059 25.9725 153.359 24.3223C155.459 23.2721 156.509 22.8221 158.459 21.7719C161.16 23.4221 162.51 24.3223 165.21 25.9725ZM156.659 14.871C159.509 16.5212 160.86 17.2713 163.56 19.0716C161.46 20.1217 160.56 20.5718 158.459 21.6219C155.759 19.9717 154.409 19.0715 151.708 17.4213C153.659 16.3712 154.709 15.9211 156.659 14.871ZM149.308 10.6704C152.158 12.3206 153.509 13.0707 156.359 14.7209C154.409 15.7711 153.359 16.2211 151.408 17.2713C148.708 15.6211 147.208 14.871 144.507 13.2207C146.458 12.1706 147.358 11.7205 149.308 10.6704ZM144.207 13.2207C147.058 14.871 148.408 15.6211 151.108 17.2713C149.158 18.3214 148.108 18.7715 146.008 19.8217C143.307 18.1714 141.957 17.2713 139.107 15.6211C141.357 14.7209 142.257 14.2709 144.207 13.2207ZM139.107 15.7711C141.807 17.4213 143.307 18.1714 146.008 19.9717C143.907 21.0218 143.007 21.4719 140.907 22.522C138.206 20.8718 136.856 19.9717 134.156 18.3214C136.106 17.2713 137.156 16.8212 139.107 15.7711ZM134.006 18.3214C136.706 19.9717 138.056 20.8718 140.757 22.522C138.657 23.5722 137.606 24.0222 135.506 25.0724C132.806 23.4222 131.606 22.522 128.905 20.8718C130.855 19.8217 131.906 19.3716 134.006 18.3214ZM128.605 21.0218C131.305 22.672 132.656 23.5722 135.206 25.2224C133.106 26.2725 132.056 26.7226 129.955 27.7727C127.405 26.1225 126.055 25.2224 123.354 23.5722C125.605 22.522 126.655 21.9219 128.605 21.0218ZM123.354 23.5722C126.055 25.2224 127.405 26.1225 129.955 27.7727C127.855 28.8229 126.805 29.273 124.705 30.3231C122.154 28.6729 120.804 27.7727 118.254 26.1225C120.204 25.0724 121.254 24.6223 123.354 23.5722ZM117.954 26.1225C120.504 27.7727 121.854 28.6729 124.405 30.3231C122.304 31.3732 121.254 31.8233 119.004 32.8734C116.453 31.2232 115.253 30.3231 112.553 28.6729C114.803 27.7727 115.853 27.1727 117.954 26.1225ZM112.403 28.9729C112.403 28.9729 112.553 28.9729 112.553 28.8229C115.103 30.4731 116.453 31.3732 119.004 33.0235C117.054 33.9236 116.153 34.3736 114.353 35.2738C111.803 33.6235 110.603 32.7234 108.052 30.9232C109.703 30.1731 110.603 29.723 112.403 28.9729ZM107.752 31.2232C110.303 32.8734 111.503 33.7736 114.053 35.5738C111.953 36.624 110.753 37.074 108.652 38.1242C106.252 36.3239 104.902 35.5738 102.352 33.7736C104.452 32.7234 105.502 32.1233 107.752 31.2232ZM102.201 33.7736C104.752 35.4238 105.952 36.3239 108.352 38.1242C106.102 39.1743 105.052 39.6244 102.802 40.6745C100.401 38.8743 99.2011 38.1242 96.6507 36.3239C98.901 35.4238 99.9512 34.8237 102.201 33.7736ZM96.5007 36.4739C99.0511 38.1242 100.251 39.0243 102.652 40.8245C100.401 41.8747 99.3511 42.3247 97.1008 43.3749C94.7005 41.5746 93.5003 40.8245 91.1 39.0243C93.2002 37.9741 94.4004 37.5241 96.5007 36.4739Z" fill="#878787"/>
<path opacity="0.28" d="M84.9492 99.4828C85.2493 99.7828 85.5493 100.083 85.6993 100.383L85.8493 100.233C85.3993 99.7828 85.0992 99.4828 84.7992 99.0327C84.9492 99.3328 84.9492 99.4828 84.9492 99.4828Z" fill="#878787"/>
</g>
<g opacity="0.37">
<path opacity="0.37" d="M67.0967 70.6784C64.3963 68.5781 61.5459 66.6279 58.3955 64.8276C59.5957 65.5777 60.6458 66.3278 62.146 67.378C60.6458 68.2781 59.5957 68.8782 58.3955 69.4783L58.5455 69.6283C59.7457 68.8782 60.7958 68.2781 62.2961 67.528C64.3963 68.7282 65.4465 69.4783 67.0967 70.6784Z" fill="#878787"/>
<path opacity="0.37" d="M56.2952 63.478C54.795 64.3782 53.8949 64.9782 52.6947 65.5783L52.8447 65.7283C54.0449 64.9782 54.945 64.3782 56.4452 63.6281C56.4452 63.6281 56.4452 63.628 56.2952 63.478Z" fill="#878787"/>
<path opacity="0.37" d="M79.3983 87.7812L79.5483 87.6311C79.0983 87.1811 78.4982 86.731 77.7481 86.2809C78.6482 85.8309 79.2483 85.3808 79.8484 85.0808C79.8484 85.0808 79.8484 84.9308 79.6984 84.9308C79.0983 85.2308 78.3482 85.6809 77.4481 86.1309C76.3979 85.3808 75.7978 84.7807 75.0477 84.1807C75.1978 84.4807 75.4978 84.6307 75.6478 84.9308C76.0979 85.3808 76.698 85.6809 77.298 86.1309C77.148 86.281 76.998 86.281 76.848 86.431L76.998 86.581C77.148 86.431 77.298 86.431 77.4481 86.2809C78.3482 87.031 78.9483 87.4811 79.3983 87.7812Z" fill="#878787"/>
<path opacity="0.37" d="M67.8468 71.1289C66.1966 72.029 65.1465 72.6291 63.9463 73.3792L64.0963 73.5292C65.2965 72.7791 66.3466 72.179 67.9968 71.2789C67.9968 71.2789 67.9968 71.2789 67.8468 71.1289Z" fill="#878787"/>
<path opacity="0.37" d="M72.6474 75.4795C71.1472 76.2296 70.247 76.8297 68.8969 77.5798L69.0469 77.7298C70.3971 76.9797 71.2972 76.3796 72.6474 75.4795C72.7974 75.6295 72.6474 75.4795 72.6474 75.4795Z" fill="#878787"/>
<path opacity="0.37" d="M76.698 80.1299C75.6479 80.73 74.5977 81.3301 73.2476 82.0802L73.3976 82.2302C74.7478 81.4801 75.6479 80.88 76.848 80.2799C76.698 80.1299 76.698 80.1299 76.698 80.1299Z" fill="#878787"/>
<path opacity="0.37" d="M44.5936 55.9767C46.9939 57.477 48.1941 58.2271 50.4444 59.5773C48.7942 60.6274 47.744 61.2275 46.3938 61.9776L46.5439 62.1276C47.894 61.3775 48.9442 60.6274 50.5944 59.7273L50.7444 59.8773L50.8944 59.7273L50.7444 59.5773C52.9948 58.2271 54.0449 57.477 56.2952 56.1268C56.4452 56.1268 56.4452 56.2768 56.5952 56.2768C56.5952 56.2768 56.7453 56.2768 56.7453 56.1268C56.5952 56.1268 56.5952 55.9767 56.4452 55.9767C58.6955 54.6266 59.7457 53.8765 61.996 52.5263C62.146 52.6763 62.296 52.6763 62.4461 52.8263C62.4461 52.8263 62.5961 52.8263 62.5961 52.6763C62.446 52.5263 62.296 52.5263 62.146 52.3763C64.3963 51.0261 65.4465 50.426 67.5467 49.0758C67.8468 49.2258 67.9968 49.3758 68.1468 49.5259C68.1468 49.5259 68.2968 49.5259 68.2968 49.3758C68.1468 49.2258 67.8468 49.0758 67.6968 48.9258C69.7971 47.5756 70.9972 46.9755 73.0975 45.6253C73.3975 45.7754 73.6976 45.9254 73.9976 46.0754C73.9976 46.0754 74.1476 46.0754 74.1476 45.9254C73.8476 45.7753 73.5476 45.6253 73.2475 45.4753C75.3478 44.1251 76.398 43.525 78.6483 42.1749C79.0983 42.3249 79.3984 42.6249 79.6984 42.7749C79.6984 42.7749 79.8484 42.7749 79.8484 42.6249C79.5484 42.4749 79.0983 42.1748 78.7983 42.0248C80.8986 40.6746 81.9487 40.0746 84.049 38.7244C84.4991 39.0244 84.9491 39.1744 85.3992 39.4745C85.3992 39.4745 85.5492 39.4745 85.5492 39.3245C85.0992 39.0244 84.6491 38.8744 84.199 38.5744C86.2993 37.2242 87.3495 36.6241 89.4498 35.2739C90.0499 35.5739 90.4999 35.874 90.95 36.174C90.95 36.174 91.1 36.174 91.1 36.024C90.6499 35.724 90.0499 35.4239 89.4498 35.1239C91.5501 33.7737 92.6002 33.1736 94.5505 31.8234C95.3006 32.1235 95.9006 32.5735 96.3507 32.8736C96.3507 32.8736 96.5007 32.8736 96.5007 32.7235C95.9007 32.4235 95.3006 32.1235 94.7005 31.6734C96.5007 30.6233 97.2508 30.0232 99.0511 28.973C99.0511 28.973 99.2011 28.973 99.2011 28.823C99.9512 29.2731 100.701 29.5731 101.301 29.8732C101.301 29.8732 101.451 29.8732 101.451 29.7231C100.851 29.4231 100.101 28.973 99.3511 28.673C101.451 27.3228 102.352 26.7227 104.452 25.3725C105.352 25.8226 106.102 26.2727 106.852 26.5727C106.852 26.5727 107.002 26.5727 107.002 26.4227C106.252 25.9726 105.502 25.6726 104.602 25.2225C106.552 23.8723 107.602 23.2723 109.553 21.9221C110.603 22.5221 111.503 22.9722 112.253 23.2722C112.253 23.2722 112.403 23.2723 112.403 23.1222C111.653 22.6722 110.753 22.2221 109.553 21.772C111.503 20.4219 112.553 19.8218 114.503 18.6216C115.703 19.2217 116.754 19.6718 117.654 20.1218C117.654 20.1218 117.804 20.1218 117.804 19.9718C116.904 19.5217 115.853 19.0717 114.653 18.4716C116.603 17.1214 117.654 16.5213 119.604 15.3212C120.954 15.9213 122.004 16.5213 123.054 16.9714C123.054 16.9714 123.204 16.9714 123.204 16.8214C122.154 16.3713 121.104 15.7712 119.754 15.1711C121.704 13.821 122.754 13.2209 124.555 12.0207C126.205 12.7708 127.255 13.3709 128.455 13.821C128.455 13.821 128.605 13.821 128.605 13.6709C127.405 13.0708 126.355 12.6208 124.705 11.8707C126.655 10.6705 127.555 9.92041 129.505 8.72025C131.306 9.47035 132.506 10.0704 133.856 10.6705C133.856 10.6705 134.006 10.6705 134.006 10.5205C132.656 9.92041 131.456 9.32034 129.655 8.57024C131.606 7.37007 132.506 6.61996 134.456 5.4198C136.406 6.31992 137.756 6.91999 139.107 7.52008C138.657 7.22003 138.056 6.91999 137.606 6.76997C136.706 6.31991 135.656 5.86986 134.456 5.4198L134.606 5.26978C134.456 5.26978 134.456 5.11976 134.306 5.11976C134.156 5.11976 134.156 5.26978 134.156 5.26978C131.306 3.91959 129.805 3.31951 126.805 2.11935C126.955 1.96933 127.255 1.8193 127.405 1.66928C127.255 1.66928 127.255 1.51926 127.105 1.51926C126.955 1.66928 126.805 1.8193 126.505 1.96932C125.155 1.36923 124.255 0.919182 123.204 0.619141C123.204 0.619141 123.054 0.619138 123.054 0.769159C124.105 1.21922 125.005 1.66929 126.355 2.11935C124.555 3.31951 123.504 3.91959 121.704 5.26978C120.204 4.6697 119.154 4.21964 118.104 3.61955C118.104 3.61955 117.954 3.61955 117.954 3.76957C119.004 4.21963 120.204 4.66969 121.554 5.4198C119.754 6.61996 118.704 7.22005 116.904 8.57024C115.253 7.82014 114.203 7.37006 112.853 6.76997C112.853 6.76997 112.703 6.76998 112.703 6.92C113.903 7.52009 115.103 7.97014 116.754 8.72025C114.803 9.92041 113.903 10.6705 111.953 11.8707C110.153 11.1206 108.952 10.5205 107.602 9.92042C107.602 9.92042 107.452 9.92042 107.452 10.0704C108.802 10.6705 110.003 11.2706 111.803 12.0207C109.853 13.2209 108.952 13.971 107.002 15.1711C105.052 14.271 103.852 13.6709 102.352 13.0709C102.352 13.0709 102.202 13.0708 102.202 13.2209C103.702 13.971 104.902 14.5711 106.852 15.3212C104.902 16.5213 104.002 17.2714 102.051 18.4716C100.101 17.5715 98.751 16.8214 97.1008 16.0713C97.1008 16.0713 96.9508 16.0713 96.9508 16.2213C98.601 16.9714 99.9512 17.5715 101.901 18.6216C99.9512 19.9718 98.9011 20.5719 96.9508 21.772C94.8505 20.7219 93.5003 20.1218 91.7001 19.2217C91.7001 19.2217 91.55 19.2217 91.55 19.3717C93.3503 20.2718 94.7005 20.8719 96.8008 21.9221C94.8505 23.2723 93.8004 23.8723 91.8501 25.2225C89.5998 24.0224 88.2496 23.4223 86.2993 22.5221C86.2993 22.5221 86.1493 22.5221 86.1493 22.6722C88.0996 23.5723 89.4498 24.3224 91.7001 25.3725C89.8998 26.5727 88.9997 27.0228 87.3495 28.2229C85.0992 27.0228 83.749 26.4227 81.6487 25.3725C81.6487 25.3725 81.4987 25.3725 81.4987 25.5226C83.599 26.5727 84.9491 27.1728 87.1995 28.373C85.2492 29.7231 84.199 30.3232 82.0987 31.6734C79.6984 30.4732 78.3482 29.7231 76.0979 28.523C76.0979 28.523 75.9479 28.523 75.9479 28.673C78.1982 29.8732 79.5484 30.4733 81.9487 31.8234C79.8484 33.1736 78.9483 33.7737 76.848 35.1239C74.4477 33.7737 73.0975 33.0236 70.6972 31.8234C70.6972 31.8234 70.5472 31.8234 70.5472 31.9734C72.9475 33.1736 74.2977 33.9237 76.698 35.2739C74.5977 36.6241 73.5476 37.2242 71.4473 38.5744C68.8969 37.2242 67.5468 36.4741 64.9964 35.1239C64.9964 35.1239 64.8464 35.1239 64.8464 35.2739C67.3967 36.6241 68.7469 37.3742 71.2973 38.7244C69.197 40.0746 68.1468 40.6746 66.0465 42.0248C63.4962 40.5246 62.146 39.9245 59.5956 38.4243C60.4958 37.8243 61.2459 37.3742 61.996 36.9241C60.4958 37.8243 58.9956 38.7244 57.3453 39.6245C56.2952 40.3746 55.3951 40.9747 53.8949 41.7248C53.8949 41.7248 53.7449 41.7248 53.7449 41.5748C53.7449 41.5748 53.5948 41.5748 53.5948 41.7248C53.5948 41.7248 53.7449 41.7248 53.7449 41.8748C51.6446 43.225 50.5944 43.8251 48.4941 45.1753C48.3441 45.1753 48.3441 45.0252 48.1941 45.0252L48.0441 45.1753C48.1941 45.1753 48.1941 45.3253 48.3441 45.3253C47.444 45.9254 46.6939 46.3754 45.9438 46.8255C45.3437 47.2756 44.7436 47.7256 44.1435 48.1757C45.7937 47.1255 46.8439 46.5255 48.6441 45.3253C51.1945 46.8255 52.3947 47.4256 54.945 48.9258C52.8447 50.276 51.6446 50.876 49.5443 52.2262C47.1439 50.726 45.9438 50.1259 43.3934 48.6257L43.2434 48.7757C45.6437 50.1259 46.8439 50.8761 49.2442 52.3763C46.9939 53.7264 45.9438 54.3265 43.8435 55.6767C41.7432 54.3265 40.393 53.5764 38.4428 52.3763L38.2927 52.5263C40.243 53.7264 41.4432 54.4766 43.6935 55.8267C41.8932 57.0269 40.6931 57.627 39.1929 58.6771C39.3429 58.6771 39.3429 58.6771 39.4929 58.8272C41.5932 57.777 42.7933 57.0269 44.5936 55.9767ZM62.146 52.5263C59.7457 51.0261 58.5455 50.276 55.9952 48.9258C58.0955 47.5756 59.1456 46.9755 61.3959 45.6253C63.9462 47.1255 65.1464 47.7256 67.5467 49.2258C65.4465 50.576 64.2463 51.1761 62.146 52.5263ZM127.705 2.5694C130.705 3.76957 132.206 4.51967 135.056 5.71983C133.106 6.92 132.206 7.67011 130.255 8.87028C127.405 7.52009 125.905 6.92001 122.904 5.56983C124.855 4.51968 125.905 3.91959 127.705 2.5694ZM122.904 5.86986C125.905 7.22005 127.255 7.82013 130.255 9.17031C128.305 10.3705 127.405 11.1206 125.455 12.3208C122.604 10.9706 121.104 10.3705 118.254 9.02028C120.054 7.6701 120.954 7.07003 122.904 5.86986ZM117.954 9.02028C120.804 10.3705 122.304 10.9706 125.155 12.3208C123.204 13.5209 122.304 14.271 120.354 15.4712C117.504 14.121 116.153 13.5209 113.303 12.1707C115.103 10.9706 116.153 10.3705 117.954 9.02028ZM113.153 12.3208C116.003 13.6709 117.504 14.271 120.204 15.6212C118.254 16.9714 117.204 17.5715 115.253 18.7716C112.403 17.4214 111.053 16.6713 108.202 15.4712C110.153 14.271 111.203 13.5209 113.153 12.3208ZM108.052 15.6212C110.903 16.9714 112.253 17.5715 115.103 18.9217C113.153 20.2718 112.103 20.8719 110.153 22.0721C107.452 20.7219 106.102 19.9718 103.252 18.6216C105.202 17.4215 106.102 16.8214 108.052 15.6212ZM103.102 18.9217C105.952 20.2718 107.302 21.0219 110.003 22.3721C108.052 23.7223 107.002 24.3224 105.052 25.6726C102.352 24.3224 101.001 23.5723 98.1509 22.2221C100.101 20.8719 101.151 20.1218 103.102 18.9217ZM98.0009 22.2221C100.701 23.5723 102.201 24.3224 104.902 25.6726C102.952 27.0228 101.901 27.6228 99.8012 28.973C97.1008 27.6228 95.7506 26.8727 93.0503 25.5226C95.0005 24.1724 95.9007 23.4223 98.0009 22.2221ZM92.6002 25.6726C92.6002 25.6726 92.7502 25.6726 92.7502 25.5226C95.4506 26.8727 96.8008 27.6228 99.5011 28.973C97.7009 30.1732 96.8008 30.6233 95.0005 31.8234C92.3002 30.4733 91.1 29.7231 88.3996 28.373C90.0498 27.3228 90.95 26.7227 92.6002 25.6726ZM88.2496 28.523C90.95 29.8731 92.3001 30.6233 94.8505 31.9734C92.7502 33.3236 91.7001 33.9237 89.7498 35.2739C87.1995 33.9237 85.8493 33.1736 83.1489 31.8234C85.2492 30.4733 86.1493 29.8731 88.2496 28.523ZM82.9989 31.8234C85.6992 33.1736 86.8994 33.9237 89.5998 35.2739C87.4995 36.6241 86.4493 37.2242 84.3491 38.5744C81.7987 37.0742 80.4485 36.4741 77.8982 34.9739C79.8484 33.9237 80.8986 33.1736 82.9989 31.8234ZM77.5981 35.2739C80.1485 36.6241 81.4987 37.3742 84.049 38.8744C81.9487 40.2246 80.8986 40.8247 78.7983 42.1749C76.2479 40.6746 75.0478 40.0746 72.3474 38.5744C74.5977 37.2242 75.6479 36.6241 77.5981 35.2739ZM72.3474 38.7244C74.8978 40.0746 76.2479 40.8247 78.7983 42.3249C76.698 43.6751 75.6479 44.2751 73.3975 45.6253C70.8472 44.1251 69.647 43.525 67.0967 42.0248C69.197 40.6746 70.2471 40.0746 72.3474 38.7244ZM66.7966 42.1749C69.347 43.6751 70.5472 44.2751 73.0975 45.7753C70.9972 47.1255 69.9471 47.7256 67.6968 49.0758C65.2964 47.5756 63.9463 46.8255 61.5459 45.4753C63.6462 44.1251 64.6964 43.375 66.7966 42.1749ZM60.1957 38.4243C62.7461 39.7745 64.0963 40.5246 66.6466 42.0248C64.5463 43.375 63.4962 43.9751 61.3959 45.3253C58.8455 43.8251 57.6454 43.225 55.095 41.7248C57.0453 40.3746 58.0955 39.7745 60.1957 38.4243ZM49.5443 45.1753C51.6446 43.8251 52.6947 43.225 54.795 41.8748C57.3453 43.375 58.6955 43.9751 61.0959 45.4753C58.9956 46.8255 57.9454 47.4256 55.6951 48.7757C53.2948 47.2755 52.0946 46.6755 49.5443 45.1753ZM55.8451 49.0758C58.2455 50.576 59.5957 51.1761 61.996 52.6763C59.7457 54.0265 58.6955 54.6266 56.4452 55.9767C54.0449 54.4765 52.8447 53.7264 50.4444 52.3763C52.5447 51.0261 53.7448 50.426 55.8451 49.0758ZM50.2944 52.5263C52.6947 54.0265 53.8949 54.7766 56.2952 56.1268C54.0449 57.477 52.9948 58.2271 50.7444 59.5773C48.3441 58.077 47.294 57.3269 44.8936 55.9767C46.9939 54.4765 48.0441 53.8765 50.2944 52.5263Z" fill="#878787"/>
</g>
<g opacity="0.21">
<path opacity="0.21" d="M160.41 135.638L166.11 132.337L170.011 134.588L170.161 134.438L166.26 132.187L171.961 128.887L175.862 131.137L176.012 130.987L172.111 128.737L177.812 125.436L181.713 127.687L181.863 127.537L177.962 125.286L183.663 121.986L187.563 124.236L187.713 124.086L183.813 121.836L189.514 118.535L193.414 120.786L193.564 120.636L189.664 118.385L195.364 115.085L199.265 117.335L199.415 117.185L195.514 114.935L201.215 111.634L205.116 113.885L205.266 113.735L201.365 111.484L207.066 108.184L210.967 110.434L211.117 110.284L207.216 108.034L212.917 104.734L216.817 106.984L216.967 106.834L213.067 104.583L218.768 101.283L222.668 103.533L222.818 103.383L218.918 101.133L224.618 97.8326L228.519 100.083L228.669 99.9328L224.768 97.6825L230.469 94.3821L234.37 96.6324L234.52 96.4824L230.619 94.2321L236.32 90.9316L240.221 93.1819L240.371 93.0319L236.47 90.7816L242.171 87.4811L246.071 89.7314L246.221 89.5814L242.321 87.3311L248.022 84.0307L249.522 84.9308C249.372 84.7808 249.222 84.6307 249.072 84.4807L248.172 84.0307L248.472 83.8806L248.322 83.7306L248.022 83.8806L242.321 80.5802L243.971 79.6801L243.821 79.53L242.171 80.5802L236.47 77.2797L239.32 75.6295L239.17 75.4795L236.32 77.1297L230.619 73.8293L234.22 71.729L234.07 71.579L230.469 73.6792L224.768 70.3788L228.819 67.9785L228.669 67.8284L224.618 70.2288L218.918 66.9283L223.268 64.378L223.118 64.2279L218.768 66.7783L213.067 63.4778L217.267 61.0775C217.267 61.0775 217.117 61.0775 217.117 60.9275L212.917 63.3278L207.216 60.0274L210.967 57.777C210.967 57.777 210.817 57.7771 210.817 57.627L207.066 59.7273L201.365 56.4269L204.366 54.6266C204.366 54.6266 204.216 54.6266 204.216 54.4766L201.215 56.2768L195.514 52.9764L197.465 51.7762C197.315 51.7762 197.315 51.7762 197.165 51.6262L195.214 52.6764L189.514 49.3759L190.114 49.0759C189.964 49.0759 189.964 49.0759 189.814 48.9258L189.214 49.2259L187.113 48.0257C186.813 47.8757 186.513 47.8757 186.213 47.7257L189.064 49.3759L183.363 52.6764L177.662 49.3759L182.463 46.5255C182.313 46.5255 182.313 46.5255 182.163 46.3755L177.362 49.0759L174.512 47.4256L174.362 47.5757L177.212 49.2259L171.511 52.5263L168.661 50.8761L168.511 51.0261L171.361 52.6764L165.66 55.9768L162.81 54.3266C162.81 54.3266 162.66 54.3266 162.66 54.4766L165.51 56.1268L159.81 59.4273L156.959 57.777L156.809 57.9271L159.66 59.5773L153.959 62.8778L151.108 61.2275L150.958 61.3776L153.809 63.0278L148.108 66.3282L145.258 64.678L145.108 64.828L147.958 66.4782L142.257 69.7787L139.407 68.1285C139.407 68.1285 139.257 68.1285 139.257 68.2785L142.107 69.9287L136.406 73.2292L133.556 71.579L133.406 71.729L136.256 73.3792L130.556 76.6797L127.705 75.0294C127.705 75.0294 127.555 75.0294 127.555 75.1794L130.405 76.8297L124.705 80.1301L121.854 78.4799C121.854 78.4799 121.704 78.4799 121.704 78.6299L124.555 80.2801L118.854 83.5806L116.004 81.9304C116.004 81.9304 115.853 81.9304 115.853 82.0804L118.704 83.7306L113.003 87.0311L110.153 85.3809L110.003 85.5309L112.853 87.1811L107.152 90.4815L104.302 88.8313C104.302 88.8313 104.152 88.8313 104.152 88.9813L107.002 90.6316L101.301 93.932L98.4511 92.2818L98.3011 92.4318L101.151 94.0821L95.4507 97.3825L92.6003 95.7323C92.6003 95.7323 92.4503 95.7323 92.4503 95.8823L95.3007 97.5325L90.35 100.383L90.5 100.533L95.4507 97.6825L101.151 100.983L96.3508 103.683C96.5008 103.683 96.5008 103.683 96.6508 103.833L101.301 101.133L107.002 104.433L103.552 106.384C103.702 106.384 103.702 106.384 103.852 106.534L107.152 104.583L112.853 107.884L110.453 109.234C110.453 109.234 110.603 109.234 110.603 109.384L112.853 108.034L118.554 111.334L116.904 112.235C116.904 112.235 117.054 112.235 117.054 112.385L118.554 111.484L124.255 114.785L123.054 115.385C123.054 115.385 123.205 115.385 123.205 115.535L124.255 114.935L129.955 118.235L128.905 118.835L129.055 118.985L130.105 118.385L135.806 121.686L134.606 122.436L134.756 122.586L135.956 121.836L141.657 125.136L140.007 126.186L140.157 126.336L141.807 125.286L147.508 128.587L144.958 130.087L145.108 130.237L147.658 128.737L153.359 132.037L149.758 134.138L149.908 134.288L153.509 132.187L159.209 135.488L154.259 138.338L154.409 138.488L159.359 135.638L163.26 137.888L163.41 137.738L160.41 135.638ZM166.11 132.037L160.41 128.737L166.11 125.436L171.811 128.737L166.11 132.037ZM177.512 91.3817L171.811 94.6821L166.11 91.3817L171.811 88.0812L177.512 91.3817ZM171.961 87.9312L177.662 84.6307L183.363 87.9312L177.662 91.2316L171.961 87.9312ZM171.661 94.8322L165.96 98.1326L160.26 94.8322L165.96 91.5317L171.661 94.8322ZM165.81 98.1326L160.11 101.433L154.409 98.1326L160.11 94.8322L165.81 98.1326ZM165.96 98.2826L171.661 101.583L165.96 104.884L160.26 101.583L165.96 98.2826ZM166.11 98.1326L171.811 94.8322L177.512 98.1326L171.811 101.433L166.11 98.1326ZM171.961 94.8322L177.662 91.5317L183.363 94.8322L177.662 98.1326L171.961 94.8322ZM177.812 91.3817L183.513 88.0812L189.214 91.3817L183.513 94.6821L177.812 91.3817ZM183.663 87.9312L189.364 84.6307L195.064 87.9312L189.364 91.2316L183.663 87.9312ZM189.514 84.6307L195.214 81.3303L200.915 84.6307L195.214 87.9312L189.514 84.6307ZM189.364 84.4807L183.663 81.1803L189.364 77.8798L195.064 81.1803L189.364 84.4807ZM189.214 84.6307L183.513 87.9312L177.812 84.6307L183.513 81.3303L189.214 84.6307ZM177.662 84.4807L171.961 81.1803L177.662 77.8798L183.363 81.1803L177.662 84.4807ZM177.362 84.6307L171.661 87.9312L165.96 84.6307L171.661 81.3303L177.362 84.6307ZM171.511 87.9312L165.81 91.2316L160.11 87.9312L165.81 84.6307L171.511 87.9312ZM165.66 91.3817L159.96 94.6821L154.259 91.3817L159.96 88.0812L165.66 91.3817ZM159.81 94.8322L154.109 98.1326L148.408 94.8322L154.109 91.5317L159.81 94.8322ZM153.959 98.1326L148.258 101.433L142.557 98.1326L148.258 94.8322L153.959 98.1326ZM154.259 98.2826L159.96 101.583L154.259 104.884L148.558 101.583L154.259 98.2826ZM160.11 101.733L165.81 105.034L160.11 108.334L154.409 105.034L160.11 101.733ZM165.96 105.184L171.661 108.484L165.96 111.784L160.26 108.484L165.96 105.184ZM166.11 105.034L171.811 101.733L177.512 105.034L171.811 108.334L166.11 105.034ZM171.961 101.583L177.662 98.2826L183.363 101.583L177.662 104.884L171.961 101.583ZM177.812 98.1326L183.513 94.8322L189.214 98.1326L183.513 101.433L177.812 98.1326ZM183.663 94.8322L189.364 91.5317L195.064 94.8322L189.364 98.1326L183.663 94.8322ZM189.664 91.3817L195.364 88.0812L201.065 91.3817L195.364 94.6821L189.664 91.3817ZM195.514 87.9312L201.215 84.6307L206.916 87.9312L201.215 91.2316L195.514 87.9312ZM201.365 84.6307L207.066 81.3303L212.767 84.6307L207.066 87.9312L201.365 84.6307ZM201.065 84.4807L195.364 81.1803L201.065 77.8798L206.766 81.1803L201.065 84.4807ZM195.214 81.0302L189.514 77.7298L195.214 74.4293L200.915 77.7298L195.214 81.0302ZM189.364 77.7298L183.663 74.4293L189.364 71.1289L195.064 74.4293L189.364 77.7298ZM189.064 77.7298L183.363 81.0302L177.662 77.7298L183.363 74.4293L189.064 77.7298ZM177.512 77.7298L171.811 74.4293L177.512 71.1289L183.213 74.4293L177.512 77.7298ZM177.362 77.7298L171.661 81.0302L165.96 77.7298L171.661 74.4293L177.362 77.7298ZM171.511 81.1803L165.81 84.4807L160.11 81.1803L165.81 77.8798L171.511 81.1803ZM165.66 84.6307L159.96 87.9312L154.259 84.6307L159.96 81.3303L165.66 84.6307ZM159.81 87.9312L154.109 91.2316L148.408 87.9312L154.109 84.6307L159.81 87.9312ZM153.959 91.3817L148.258 94.6821L142.557 91.3817L148.258 88.0812L153.959 91.3817ZM148.108 94.8322L142.407 98.1326L136.706 94.8322L142.407 91.5317L148.108 94.8322ZM142.257 98.1326L136.556 101.433L130.856 98.1326L136.556 94.8322L142.257 98.1326ZM142.407 98.2826L148.108 101.583L142.407 104.884L136.706 101.583L142.407 98.2826ZM148.408 101.733L154.109 105.034L148.408 108.334L142.707 105.034L148.408 101.733ZM154.259 105.184L159.96 108.484L154.259 111.784L148.558 108.484L154.259 105.184ZM160.11 108.484L165.81 111.784L160.11 115.085L154.409 111.784L160.11 108.484ZM165.96 111.935L171.661 115.235L165.96 118.535L160.26 115.235L165.96 111.935ZM166.26 111.784L171.961 108.484L177.662 111.784L171.961 115.085L166.26 111.784ZM172.111 108.484L177.812 105.184L183.513 108.484L177.812 111.784L172.111 108.484ZM177.962 105.034L183.663 101.733L189.364 105.034L183.663 108.334L177.962 105.034ZM183.813 101.583L189.514 98.2826L195.214 101.583L189.514 104.884L183.813 101.583ZM189.664 98.2826L195.364 94.9822L201.065 98.2826L195.364 101.583L189.664 98.2826ZM195.514 94.8322L201.215 91.5317L206.916 94.8322L201.215 98.1326L195.514 94.8322ZM201.365 91.3817L207.066 88.0812L212.767 91.3817L207.066 94.6821L201.365 91.3817ZM207.216 87.9312L212.917 84.6307L218.618 87.9312L212.917 91.2316L207.216 87.9312ZM213.067 84.6307L218.768 81.3303L224.468 84.6307L218.768 87.9312L213.067 84.6307ZM212.917 84.4807L207.216 81.1803L212.917 77.8798L218.618 81.1803L212.917 84.4807ZM206.916 81.0302L201.215 77.7298L206.916 74.4293L212.617 77.7298L206.916 81.0302ZM201.065 77.7298L195.364 74.4293L201.065 71.1289L206.766 74.4293L201.065 77.7298ZM195.214 74.2793L189.514 70.9789L195.214 67.6784L200.915 70.9789L195.214 74.2793ZM189.214 70.8289L183.513 67.5284L189.214 64.2279L194.914 67.5284L189.214 70.8289ZM189.064 70.9789L183.363 74.2793L177.662 70.9789L183.363 67.6784L189.064 70.9789ZM177.512 70.8289L171.811 67.5284L177.512 64.2279L183.213 67.5284L177.512 70.8289ZM177.362 70.9789L171.661 74.2793L165.96 70.9789L171.661 67.6784L177.362 70.9789ZM171.511 74.4293L165.81 77.7298L160.11 74.4293L165.81 71.1289L171.511 74.4293ZM165.66 77.7298L159.96 81.0302L154.259 77.7298L159.96 74.4293L165.66 77.7298ZM159.81 81.1803L154.109 84.4807L148.408 81.1803L154.109 77.8798L159.81 81.1803ZM153.959 84.6307L148.258 87.9312L142.557 84.6307L148.258 81.3303L153.959 84.6307ZM148.108 87.9312L142.407 91.2316L136.706 87.9312L142.407 84.6307L148.108 87.9312ZM142.257 91.3817L136.556 94.6821L130.856 91.3817L136.556 88.0812L142.257 91.3817ZM136.406 94.8322L130.706 98.1326L125.005 94.8322L130.706 91.5317L136.406 94.8322ZM130.556 98.2826L124.855 101.583L119.154 98.2826L124.855 94.9822L130.556 98.2826ZM130.706 98.2826L136.406 101.583L130.706 104.884L125.005 101.583L130.706 98.2826ZM136.556 101.733L142.257 105.034L136.556 108.334L130.856 105.034L136.556 101.733ZM142.557 105.184L148.258 108.484L142.557 111.784L136.856 108.484L142.557 105.184ZM148.408 108.484L154.109 111.784L148.408 115.085L142.707 111.784L148.408 108.484ZM154.259 111.935L159.96 115.235L154.259 118.535L148.558 115.235L154.259 111.935ZM160.11 115.385L165.81 118.685L160.11 121.986L154.409 118.685L160.11 115.385ZM166.11 118.685L171.811 121.986L166.11 125.286L160.41 121.986L166.11 118.685ZM166.26 118.685L171.961 115.385L177.662 118.685L171.961 121.986L166.26 118.685ZM172.111 115.235L177.812 111.935L183.513 115.235L177.812 118.535L172.111 115.235ZM177.962 111.784L183.663 108.484L189.364 111.784L183.663 115.085L177.962 111.784ZM183.813 108.484L189.514 105.184L195.214 108.484L189.514 111.784L183.813 108.484ZM189.664 105.034L195.364 101.733L201.065 105.034L195.364 108.334L189.664 105.034ZM195.514 101.583L201.215 98.2826L206.916 101.583L201.215 104.884L195.514 101.583ZM201.365 98.1326L207.066 94.8322L212.767 98.1326L207.066 101.433L201.365 98.1326ZM207.216 94.8322L212.917 91.5317L218.618 94.8322L212.917 98.1326L207.216 94.8322ZM213.067 91.3817L218.768 88.0812L224.468 91.3817L218.768 94.6821L213.067 91.3817ZM218.918 87.9312L224.618 84.6307L230.319 87.9312L224.618 91.2316L218.918 87.9312ZM224.768 84.6307L230.469 81.3303L236.17 84.6307L230.469 87.9312L224.768 84.6307ZM224.618 84.4807L218.918 81.1803L224.618 77.8798L230.319 81.1803L224.618 84.4807ZM218.768 81.0302L213.067 77.7298L218.768 74.4293L224.468 77.7298L218.768 81.0302ZM212.767 77.7298L207.066 74.4293L212.767 71.1289L218.468 74.4293L212.767 77.7298ZM206.916 74.2793L201.215 70.9789L206.916 67.6784L212.617 70.9789L206.916 74.2793ZM201.065 70.8289L195.364 67.5284L201.065 64.2279L206.766 67.5284L201.065 70.8289ZM195.064 67.5284L189.364 64.2279L195.064 60.9275L200.765 64.2279L195.064 67.5284ZM189.214 64.0779L183.513 60.7775L189.214 57.477L194.914 60.7775L189.214 64.0779ZM189.064 64.2279L183.363 67.5284L177.662 64.2279L183.363 60.9275L189.064 64.2279ZM177.512 64.0779L171.811 60.7775L177.512 57.477L183.213 60.7775L177.512 64.0779ZM177.362 64.2279L171.661 67.5284L165.96 64.2279L171.661 60.9275L177.362 64.2279ZM171.511 67.5284L165.81 70.8289L160.11 67.5284L165.81 64.2279L171.511 67.5284ZM165.66 70.9789L159.96 74.2793L154.259 70.9789L159.96 67.6784L165.66 70.9789ZM159.81 74.4293L154.109 77.7298L148.408 74.4293L154.109 71.1289L159.81 74.4293ZM153.959 77.7298L148.258 81.0302L142.557 77.7298L148.258 74.4293L153.959 77.7298ZM148.108 81.1803L142.407 84.4807L136.706 81.1803L142.407 77.8798L148.108 81.1803ZM142.257 84.6307L136.556 87.9312L130.856 84.6307L136.556 81.3303L142.257 84.6307ZM136.406 87.9312L130.706 91.2316L125.005 87.9312L130.706 84.6307L136.406 87.9312ZM130.556 91.3817L124.855 94.6821L119.154 91.3817L124.855 88.0812L130.556 91.3817ZM124.555 94.8322L118.854 98.1326L113.153 94.8322L118.854 91.5317L124.555 94.8322ZM118.704 98.1326L113.003 101.433L107.302 98.1326L113.003 94.8322L118.704 98.1326ZM119.004 98.2826L124.705 101.583L119.004 104.884L113.303 101.583L119.004 98.2826ZM124.855 101.733L130.556 105.034L124.855 108.334L119.154 105.034L124.855 101.733ZM130.706 105.184L136.406 108.484L130.706 111.784L125.005 108.484L130.706 105.184ZM136.706 108.484L142.407 111.784L136.706 115.085L131.006 111.784L136.706 108.484ZM142.557 111.935L148.258 115.235L142.557 118.535L136.856 115.235L142.557 111.935ZM148.408 115.385L154.109 118.685L148.408 121.986L142.707 118.685L148.408 115.385ZM154.259 118.685L159.96 121.986L154.259 125.286L148.558 121.986L154.259 118.685ZM160.26 122.136L165.96 125.436L160.26 128.737L154.559 125.436L160.26 122.136ZM171.961 128.737L166.26 125.436L171.961 122.136L177.662 125.436L171.961 128.737ZM177.812 125.286L172.111 121.986L177.812 118.685L183.513 121.986L177.812 125.286ZM183.663 121.836L177.962 118.535L183.663 115.235L189.364 118.535L183.663 121.836ZM189.514 118.535L183.813 115.235L189.514 111.935L195.214 115.235L189.514 118.535ZM195.364 115.085L189.664 111.784L195.364 108.484L201.065 111.784L195.364 115.085ZM201.215 111.634L195.514 108.334L201.215 105.034L206.916 108.334L201.215 111.634ZM207.066 108.334L201.365 105.034L207.066 101.733L212.767 105.034L207.066 108.334ZM212.917 104.884L207.216 101.583L212.917 98.2826L218.618 101.583L212.917 104.884ZM218.768 101.433L213.067 98.1326L218.768 94.8322L224.468 98.1326L218.768 101.433ZM224.618 98.1326L218.918 94.8322L224.618 91.5317L230.319 94.8322L224.618 98.1326ZM230.469 94.6821L224.768 91.3817L230.469 88.0812L236.17 91.3817L230.469 94.6821ZM236.32 91.2316L230.619 87.9312L236.32 84.6307L242.021 87.9312L236.32 91.2316ZM242.171 81.3303L247.872 84.6307L242.171 87.9312L236.47 84.6307L242.171 81.3303ZM236.32 77.8798L242.021 81.1803L236.32 84.4807L230.619 81.1803L236.32 77.8798ZM230.469 74.5794L236.17 77.8798L230.469 81.1803L224.768 77.8798L230.469 74.5794ZM224.468 71.1289L230.169 74.4293L224.468 77.7298L218.768 74.4293L224.468 71.1289ZM218.618 67.6784L224.318 70.9789L218.618 74.2793L212.917 70.9789L218.618 67.6784ZM212.767 64.378L218.468 67.6784L212.767 70.9789L207.066 67.6784L212.767 64.378ZM206.766 60.9275L212.467 64.2279L206.766 67.5284L201.065 64.2279L206.766 60.9275ZM206.616 60.7775L200.915 64.0779L195.214 60.7775L200.915 57.477L206.616 60.7775ZM195.064 54.1766L200.765 57.477L195.064 60.7775L189.364 57.477L195.064 54.1766ZM189.214 50.7261L194.914 54.0265L189.214 57.327L183.513 54.0265L189.214 50.7261ZM183.363 54.1766L189.064 57.477L183.363 60.7775L177.662 57.477L183.363 54.1766ZM177.362 50.7261L183.063 54.0265L177.362 57.327L171.661 54.0265L177.362 50.7261ZM171.511 54.1766L177.212 57.477L171.511 60.7775L165.81 57.477L171.511 54.1766ZM165.66 57.477L171.361 60.7775L165.66 64.0779L159.96 60.7775L165.66 57.477ZM159.81 60.9275L165.51 64.2279L159.81 67.5284L154.109 64.2279L159.81 60.9275ZM153.959 64.378L159.66 67.6784L153.959 70.9789L148.258 67.6784L153.959 64.378ZM148.108 67.6784L153.809 70.9789L148.108 74.2793L142.407 70.9789L148.108 67.6784ZM142.257 71.1289L147.958 74.4293L142.257 77.7298L136.556 74.4293L142.257 71.1289ZM136.406 74.5794L142.107 77.8798L136.406 81.1803L130.706 77.8798L136.406 74.5794ZM130.556 77.8798L136.256 81.1803L130.556 84.4807L124.855 81.1803L130.556 77.8798ZM124.705 81.3303L130.405 84.6307L124.705 87.9312L119.004 84.6307L124.705 81.3303ZM118.854 84.7808L124.555 88.0812L118.854 91.3817L113.153 88.0812L118.854 84.7808ZM113.003 88.0812L118.704 91.3817L113.003 94.6821L107.302 91.3817L113.003 88.0812ZM107.152 91.5317L112.853 94.8322L107.152 98.1326L101.452 94.8322L107.152 91.5317ZM101.301 101.433L95.6007 98.1326L101.301 94.8322L107.002 98.1326L101.301 101.433ZM107.302 104.884L101.602 101.583L107.302 98.2826L113.003 101.583L107.302 104.884ZM113.153 108.334L107.452 105.034L113.153 101.733L118.854 105.034L113.153 108.334ZM119.004 111.634L113.303 108.334L119.004 105.034L124.705 108.334L119.004 111.634ZM125.005 115.085L119.304 111.784L125.005 108.484L130.706 111.784L125.005 115.085ZM130.856 118.535L125.155 115.235L130.856 111.935L136.556 115.235L130.856 118.535ZM136.706 121.836L131.006 118.535L136.706 115.235L142.407 118.535L136.706 121.836ZM142.557 125.286L136.856 121.986L142.557 118.685L148.258 121.986L142.557 125.286ZM148.558 128.737L142.857 125.436L148.558 122.136L154.259 125.436L148.558 128.737ZM154.409 132.037L148.708 128.737L154.409 125.436L160.11 128.737L154.409 132.037ZM160.26 135.488L154.559 132.187L160.26 128.887L165.96 132.187L160.26 135.488Z" fill="#878787"/>
</g>
<path d="M45.4937 44.575C45.4937 43.8249 46.2437 43.2249 46.8438 43.0748C47.5939 42.9248 48.344 43.0748 49.0941 43.2248C49.2442 43.2248 49.5442 43.3749 49.5442 43.5249C49.6942 43.6749 49.3942 43.975 49.2442 44.125C48.4941 44.7251 47.5939 45.0251 46.6938 45.1751L45.4937 44.575Z" fill="#F9B58F"/>
<path d="M137.006 54.4765L41.8932 16.2212L38.8928 23.5722L148.558 67.6783L137.006 54.4765Z" fill="#ECBF53"/>
<path d="M37.9927 32.1233L36.6425 31.0731L36.0424 30.7731L36.6425 31.0731L36.0424 30.623L33.042 37.974L128.155 76.2293L141.507 75.1792L142.407 73.2289L36.6425 31.0731L37.9927 32.1233Z" fill="#B48C2B"/>
<path d="M152.158 71.7289L148.558 67.6783L145.707 66.4781L144.057 68.5785L145.707 66.4781L38.8927 23.5723L36.0424 30.6232L36.6424 31.0733L142.257 73.2291L142.857 71.7289L142.257 73.2291L146.007 74.7293L150.958 74.2792C152.458 74.2792 153.058 72.629 152.158 71.7289Z" fill="#D8AD46"/>
<path d="M141.507 75.1793L146.007 74.7292L142.407 73.229L141.507 75.1793Z" fill="#00BCD4"/>
<path d="M152.158 71.7285L137.006 54.4761C134.906 53.726 132.656 54.6262 131.906 56.5764C131.155 58.5267 132.056 60.777 134.156 61.6771L134.006 61.8272C131.906 61.077 129.655 61.9772 128.905 63.9274C128.155 65.8777 129.055 68.128 131.155 69.0281L131.005 69.1782C128.905 68.4281 126.655 69.3282 125.905 71.2784C125.155 73.2287 126.055 75.479 128.155 76.3791L150.958 74.4289C152.458 74.2789 153.058 72.6286 152.158 71.7285Z" fill="white"/>
<path d="M131.005 68.8784V69.1785C128.905 68.4284 126.655 69.3285 125.905 71.2787C125.155 73.229 126.055 75.4793 128.155 76.3794L150.958 74.4292C151.258 74.4292 151.558 74.2792 151.708 74.1291L131.005 68.8784Z" fill="#F1F2F2"/>
<path d="M139.257 75.3293L150.958 74.2791C152.308 74.1291 152.908 72.6289 152.008 71.5788L144.207 62.7275L139.257 75.3293Z" fill="#6C6C6C"/>
<path d="M20.8903 16.3711C20.1402 17.2712 19.3901 18.4714 18.94 19.6715C16.5397 25.6724 19.3901 32.5733 25.3909 34.9736L32.5919 37.9741L35.2923 30.9231L28.0913 27.9227C23.4406 26.1224 20.7403 21.3218 20.8903 16.3711Z" fill="#F78886"/>
<path d="M34.2422 13.2208C29.4415 11.2705 24.1908 12.7707 20.8903 16.5212C20.5903 21.4719 23.4407 26.1226 28.2414 28.0729L35.4424 31.0733L41.2932 16.2212L34.2422 13.2208Z" fill="#F9A3A1"/>
<path d="M41.2932 16.0713L35.5924 30.9233L44.7437 34.3738L50.5945 19.8218L41.2932 16.0713Z" fill="#788C37"/>
<path d="M32.7419 37.9743L41.8932 41.5748L44.7436 34.3738L35.5923 30.9233L32.7419 37.9743Z" fill="#5B6A2A"/>
<path d="M11.7391 94.2318C11.7391 94.2318 11.8892 94.0818 11.7391 94.2318C12.4892 93.9317 12.9393 93.7817 13.5394 93.1816C14.2895 93.7817 14.7396 95.1319 15.1896 95.882C14.7396 96.3321 14.5895 96.9321 14.4395 97.5322C13.0893 97.2322 11.8892 95.732 11.7391 94.2318Z" fill="#FFC8A4"/>
<path d="M14.4395 97.5321C14.5895 97.6821 14.2895 98.1322 14.2895 98.2822C14.2895 98.5823 14.2895 98.8823 14.4395 99.1824C14.5895 99.3324 14.7395 99.4824 14.7395 99.6324C14.8896 99.9325 15.0396 100.232 15.0396 100.533C15.0396 100.833 14.8895 101.133 14.5895 101.283C14.4395 101.433 11.2891 101.883 10.539 99.3324C10.2389 98.4323 10.3889 97.3821 10.2389 96.482C10.2389 96.1819 10.0889 95.8819 10.2389 95.4318C10.3889 94.8318 11.139 94.2317 11.7391 93.9316C11.5891 93.9316 12.0392 95.4319 12.0392 95.5819C12.3392 96.0319 12.3392 96.482 12.7893 96.782C12.9393 96.932 13.2393 97.0821 13.3893 97.2321C13.9894 97.3821 14.4395 97.3821 14.4395 97.5321Z" fill="#0D417A"/>
<path d="M26.8913 104.883C27.1913 105.333 27.4914 105.784 27.7914 106.084C28.5415 106.984 29.2916 107.884 29.5917 108.934C29.5917 109.084 29.7417 109.234 29.5917 109.534C29.4416 109.984 28.9916 110.134 28.5415 110.134C26.2912 110.284 24.641 108.184 22.9908 106.834C22.6907 106.534 22.3907 106.384 22.2407 106.084C21.9406 105.483 21.9406 104.733 22.2407 104.133C23.4408 105.183 25.3911 105.483 26.8913 104.883Z" fill="#0D417A"/>
<path d="M22.24 103.983C22.6901 103.233 22.8401 102.633 22.9901 102.033C24.0402 102.033 25.2404 102.783 26.2905 103.083C26.2905 103.683 26.5906 104.284 26.8906 104.884C25.3904 105.484 23.4402 105.184 22.24 103.983Z" fill="#FFC8A4"/>
<path d="M45.9438 43.8247C45.0437 45.4749 42.1933 49.3755 40.8431 50.7256C40.543 51.1757 39.4929 51.7758 39.0428 51.7758C38.1427 51.9258 36.7925 51.1757 35.8924 50.7256C35.4423 50.4256 34.8422 50.1256 34.3922 49.9755C33.7921 51.4757 33.192 52.8259 33.342 54.4762C33.9421 54.6262 34.5422 54.7762 34.9923 54.9262C36.3425 55.2263 37.6926 55.5263 39.0428 55.2263C40.6931 54.7762 43.0934 53.276 44.1435 51.9258C44.4436 51.4758 48.0441 44.7248 47.894 44.7248C46.8439 44.2748 46.6939 44.2748 45.9438 43.8247Z" fill="#F9B58F"/>
<path d="M28.0914 47.7253L29.4416 53.1261C30.6418 53.7262 32.7421 54.3262 33.9422 54.9263C34.0923 53.5761 34.9924 51.3258 35.5925 50.1257C33.6422 48.9255 30.6418 47.5753 28.0914 47.7253Z" fill="#2262A8"/>
<path d="M12.1892 93.4818L14.5895 97.6824C14.5895 97.6824 16.6898 96.1822 24.0408 90.0313C24.7909 89.4313 25.391 88.8312 25.8411 88.0811C27.3413 86.2808 28.2414 84.0305 28.8415 81.9302C30.1917 76.8295 29.5916 72.0289 29.5916 72.0289L21.9405 69.4785C21.9405 69.4785 21.4905 79.98 20.8904 82.9804C20.4403 85.9808 12.1892 93.4818 12.1892 93.4818Z" fill="#918376"/>
<path d="M25.9911 79.3798C26.4412 82.2301 26.2911 85.2306 25.9911 88.081C27.4913 86.2807 28.3914 84.0304 28.9915 81.9301C28.2414 79.5298 27.0412 77.2795 25.6911 75.1792L25.391 74.5791C25.241 76.2293 25.6911 77.7295 25.9911 79.3798Z" fill="#7C6D61"/>
<path d="M22.3906 69.6284C22.3906 69.6284 28.6915 75.0292 27.4914 89.1311C27.1913 91.8315 26.8913 103.533 26.8913 103.533L21.9406 104.133C21.9406 104.133 22.5407 92.2816 22.0906 88.231C21.6405 84.0304 14.4395 74.2791 16.3898 69.9285C18.3401 65.7279 22.3906 69.6284 22.3906 69.6284Z" fill="#918376"/>
<path d="M15.4896 72.0287C17.5899 64.3776 17.4399 54.0262 18.04 50.4257C18.34 48.3254 22.2405 47.8754 23.5907 47.5753C25.0909 47.2753 27.1912 47.2753 28.6914 47.7253C34.5422 49.2255 28.6914 63.0274 30.4917 72.4787C29.1415 73.5289 22.0905 73.0788 15.4896 72.0287Z" fill="#2262A8"/>
<path d="M28.0914 47.5751C27.9414 48.1752 27.4913 49.5254 27.0413 49.6754C26.5912 49.8254 26.1412 49.6754 25.8411 49.3754C25.3911 49.0753 24.941 48.4752 24.6409 48.0252C24.0409 46.825 24.1909 45.3248 24.4909 43.9746L28.0914 47.5751Z" fill="#EBA480"/>
<path d="M28.9909 37.5238C29.8911 37.9738 30.4911 38.874 30.7912 39.7741C31.6913 41.7244 31.6913 43.9747 30.7912 45.9249C30.3411 46.8251 29.741 47.7252 28.6909 48.0252C27.4907 48.4753 26.1405 47.7252 25.0904 46.8251C23.5902 45.6249 22.39 43.6746 22.39 41.7244C22.54 39.174 26.2906 35.8735 28.9909 37.5238Z" fill="#FFC8A4"/>
<path d="M22.0906 41.1245C22.0906 40.6745 22.3906 40.0744 22.5406 39.6243C22.9907 38.1241 24.6409 37.374 26.1411 36.924C27.1913 36.6239 28.2414 36.6239 29.2916 37.074C30.1917 37.374 31.0918 37.9741 31.8419 38.5742C31.9919 38.7242 32.142 38.8742 32.292 39.1743C32.592 39.7743 32.292 40.3744 31.8419 40.6745C31.3919 40.9745 30.9418 40.8245 30.4917 40.9745C29.8917 40.9745 29.2916 41.1245 28.8415 41.1245C28.0914 41.1245 27.3413 40.9745 26.5912 40.8245C25.9911 40.6745 25.391 40.5244 24.941 41.1245C24.791 41.2746 24.791 41.4246 24.791 41.5746C24.6409 42.1747 24.4909 42.7747 24.1909 43.5248C24.1909 43.6749 24.0408 43.9749 24.0408 44.1249C24.0408 44.275 24.0408 44.425 24.0408 44.425C24.0408 44.725 24.0408 45.1751 24.0408 45.4751C24.0408 45.4751 23.2907 44.875 23.1407 44.725C22.8407 44.425 22.6907 44.275 22.5406 43.8249C22.2406 43.2248 22.3906 42.7747 22.2406 42.0246C22.0906 41.8746 22.0906 41.5746 22.0906 41.1245Z" fill="black"/>
<path d="M24.191 43.5246C24.041 43.3746 24.041 43.3746 23.891 43.2246H23.741C23.5909 43.2246 23.4409 43.5247 23.4409 43.8247C23.4409 44.1247 23.5909 44.2748 23.741 44.4248C23.891 44.5748 24.191 44.7248 24.341 44.7248L24.191 43.5246Z" fill="#FFC8A4"/>
<path d="M31.692 42.1748L29.8917 42.9249V44.1251L31.692 43.375V42.1748Z" stroke="#54293A" stroke-width="0.598916" stroke-miterlimit="10" stroke-linecap="round" stroke-linejoin="round"/>
<path d="M28.6916 43.2251L26.8914 43.9752V45.1754L28.6916 44.5753V43.2251Z" stroke="#54293A" stroke-width="0.598916" stroke-miterlimit="10" stroke-linecap="round" stroke-linejoin="round"/>
<path d="M26.8914 44.4247L23.2909 42.7744" stroke="#54293A" stroke-width="0.598916" stroke-miterlimit="10" stroke-linecap="round" stroke-linejoin="round"/>
<path d="M29.8918 43.5247C29.8918 43.5247 29.4418 43.2247 28.6917 43.8248" stroke="#54293A" stroke-width="0.598916" stroke-miterlimit="10" stroke-linecap="round" stroke-linejoin="round"/>
<path d="M40.393 40.2246C39.943 42.0249 38.2928 48.0257 35.4424 49.3759C33.3421 50.426 24.6409 47.8757 22.5406 47.8757C21.1904 47.8757 18.04 48.3257 18.19 50.276C18.34 52.0762 21.7905 52.6763 23.2907 52.9764C25.0909 53.4264 33.7921 53.8765 35.8924 52.6763C41.1431 49.8259 41.5932 41.1247 41.7432 40.5246L40.393 40.2246Z" fill="#FFC8A4"/>
<path d="M26.8912 48.3254C25.541 47.8754 24.1908 47.4253 22.6906 47.5753C21.3404 47.5753 18.04 48.6255 18.19 50.5757C18.34 52.376 21.6405 53.5761 22.9907 53.8762C23.7408 54.0262 24.3408 54.1762 25.0909 54.1762C25.0909 52.226 25.691 50.4257 26.8912 48.3254Z" fill="#2D7BC1"/>
<path d="M40.2431 40.5245C39.793 40.0744 39.793 39.3243 40.2431 38.8743C40.5431 38.4242 41.1432 38.1241 41.7433 37.9741C41.7433 38.4242 41.4432 38.8742 41.1432 39.0243C42.1933 38.4242 43.5435 38.1241 44.7437 38.4242C44.1436 40.0744 42.4934 41.1245 40.6931 41.2746L40.2431 40.5245Z" fill="#FFC8A4"/>
<path d="M54.4952 114.635C53.8951 115.535 54.1951 116.885 54.9452 117.635C55.2453 117.785 55.5453 118.085 55.5453 118.535C55.5453 118.685 55.2453 118.835 55.0952 118.985C54.3451 119.135 53.445 119.135 52.6949 118.685C51.9448 118.235 51.4947 117.635 51.1947 116.885C51.0447 116.285 51.0447 115.535 51.0447 114.935C51.0447 114.485 51.0447 113.885 51.3447 113.585C51.7948 112.985 52.8449 112.985 53.445 113.435C53.7451 113.585 54.0451 113.885 54.1951 114.185C54.3451 114.485 54.3451 114.935 54.0451 115.235" fill="#939598"/>
<path d="M77.2982 121.086C76.8481 121.236 76.6981 121.686 76.6981 121.986C76.6981 122.436 76.9982 122.736 77.2982 123.036C77.5982 123.336 78.0483 123.336 78.3483 123.486C79.2485 123.786 80.1486 124.086 81.0487 124.386C81.4988 124.536 81.9488 124.686 82.3989 124.536C82.8489 124.536 83.299 124.086 83.299 123.636C83.299 123.186 82.849 122.886 82.5489 122.586C81.7988 121.986 80.8987 121.386 80.1486 120.786L77.2982 121.086Z" fill="#939598"/>
<path d="M63.9463 85.231C61.696 94.5322 55.0951 105.634 50.8945 114.335C52.5448 115.535 53.8949 115.535 54.645 115.385C60.7959 109.684 66.7967 101.133 70.8473 94.2322C75.798 102.633 77.8983 111.635 76.6981 121.386C78.3483 121.536 79.8485 122.136 81.0487 121.536C82.999 109.534 82.5489 97.0826 77.1481 86.2811L63.9463 85.231Z" fill="#16285B"/>
<path d="M92.1503 61.8276C90.9502 63.7779 88.9999 66.1782 87.9498 67.3784C87.6497 67.8285 86.5996 68.4285 86.1495 68.4285C85.2494 68.5786 83.8992 67.8285 82.9991 67.3784C82.549 67.0784 81.9489 66.7783 81.4989 66.6283C80.8988 68.1285 80.2987 69.4787 80.4487 71.1289C81.0488 71.2789 81.6489 71.429 82.0989 71.579C83.4491 71.879 84.7993 72.1791 86.1495 71.879C87.7997 71.429 89.6 69.6287 90.6501 68.2785C91.4002 67.2284 92.9004 64.378 93.6505 62.4277L92.1503 61.8276Z" fill="#F9B58F"/>
<path d="M75.3479 64.2278L76.6981 69.6285C77.8983 70.2286 79.9986 70.8287 81.1987 71.4288C81.3487 70.0786 82.2488 67.8283 82.8489 66.6281C80.7486 65.4279 77.7482 64.0778 75.3479 64.2278Z" fill="#274382"/>
<path d="M63.3463 86.1307C65.4466 78.4796 64.6965 70.6786 65.4466 67.0781C65.7467 64.9778 69.6472 64.5277 70.9974 64.2277C72.4976 63.9276 74.5979 63.9276 76.0981 64.3777C81.9489 65.8779 78.1984 80.4299 77.8983 86.5807C76.2481 87.6309 69.7972 87.1808 63.3463 86.1307Z" fill="#274382"/>
<path d="M75.3479 64.078C75.1979 64.6781 74.7478 66.0283 74.2978 66.1783C73.8477 66.3283 73.3976 66.1783 73.0976 65.8783C72.6475 65.5782 72.1975 64.9782 71.8974 64.5281C71.2973 63.3279 71.4474 61.8277 71.7474 60.4775L75.3479 64.078Z" fill="#EBA480"/>
<path d="M76.248 54.0267C77.1481 54.4768 77.7482 55.3769 78.0483 56.277C78.9484 58.2273 78.9484 60.4776 78.0483 62.4279C77.5982 63.328 76.9981 64.2281 75.948 64.5281C74.7478 64.9782 73.3976 64.2281 72.3475 63.328C70.8473 62.1278 69.6471 60.1776 69.6471 58.2273C69.7971 55.6769 73.3976 52.3765 76.248 54.0267Z" fill="#FFC8A4"/>
<path d="M69.1971 57.627C69.1971 57.1769 69.4972 56.5768 69.6472 56.1268C70.0972 54.6266 71.7475 53.8765 73.2477 53.4264C74.2978 53.1264 75.348 53.1264 76.3981 53.5764C77.2982 53.8765 78.1984 54.4765 78.9485 55.0766C79.0985 55.2266 79.2485 55.3767 79.3985 55.6767C79.6986 56.2768 79.3985 56.8769 78.9485 57.1769C78.4984 57.4769 78.0483 57.3269 77.5983 57.4769C76.9982 57.4769 76.3981 57.627 75.9481 57.627C75.198 57.627 74.4479 57.477 73.6978 57.3269C73.0977 57.1769 72.4976 57.0269 72.0475 57.627C71.8975 57.777 71.8975 57.927 71.8975 58.077C71.7475 58.6771 71.5975 59.2772 71.2974 60.0273C71.2974 60.1773 71.1474 60.4774 71.1474 60.6274C71.1474 60.7774 71.1474 60.9274 71.1474 60.9274C71.1474 61.2275 71.1474 61.6775 71.1474 61.9776C71.1474 61.9776 70.3973 61.3775 70.2473 61.2275C69.9472 60.9274 69.7972 60.7774 69.6472 60.3273C69.3471 59.7273 69.4972 59.2772 69.3472 58.5271C69.3472 58.3771 69.1971 58.077 69.1971 57.627Z" fill="#673AB7"/>
<path d="M71.2973 60.0276C71.1473 59.8776 71.1473 59.8776 70.9973 59.7275H70.8473C70.6973 59.7275 70.5472 60.0276 70.5472 60.3276C70.5472 60.6277 70.6973 60.7777 70.8473 60.9277C70.9973 61.0777 71.2974 61.2277 71.4474 61.2277L71.2973 60.0276Z" fill="#FFC8A4"/>
<path d="M87.4996 56.7271C87.0496 58.5273 85.3993 64.5281 82.5489 65.8783C80.4486 66.9285 71.7474 64.3781 69.6471 64.3781C68.297 64.3781 65.1465 64.8282 65.2966 66.7784C65.4466 68.5787 68.897 69.1788 70.3973 69.4788C72.1975 69.9289 80.8987 70.3789 82.999 69.1788C88.2497 66.3284 88.6998 57.6272 88.8498 57.0271L87.4996 56.7271Z" fill="#FFC8A4"/>
<path d="M73.9978 64.8279C72.6476 64.3778 71.2974 63.9277 69.7972 64.0778C68.447 64.0778 65.1466 65.1279 65.2966 67.0782C65.4466 68.8784 68.747 70.0786 70.0972 70.3786C70.8473 70.5286 71.4474 70.6787 72.1975 70.6787C72.3476 68.7284 72.9476 66.9282 73.9978 64.8279Z" fill="#274382"/>
<path d="M87.4997 57.0269C87.0496 56.5768 87.0496 55.8268 87.4997 55.3767C87.7997 54.9266 88.3998 54.6266 88.9999 54.4766C88.9999 54.9266 88.6998 55.3767 88.3998 55.5267C89.4499 54.9266 90.8001 54.6266 92.0003 54.9266C91.4002 56.5769 89.75 57.627 87.9497 57.777L87.4997 57.0269Z" fill="#FFC8A4"/>
<path d="M93.0504 63.4776C93.8005 63.6276 94.5506 63.3276 95.0007 62.8775C94.4006 62.5775 93.8005 62.2775 93.0504 62.1274V63.4776Z" fill="#F9B58F"/>
<defs>
<linearGradient id="paint0_linear" x1="14.1074" y1="51.9207" x2="114.573" y2="51.9207" gradientUnits="userSpaceOnUse">
<stop stop-color="white"/>
<stop offset="1" stop-color="#D1D3D4"/>
</linearGradient>
<linearGradient id="paint1_linear" x1="73.4926" y1="22.4593" x2="101.937" y2="45.7071" gradientUnits="userSpaceOnUse">
<stop stop-color="white"/>
<stop offset="1" stop-color="#D1D3D4"/>
</linearGradient>
</defs>
</svg>
